<svg width="1440" height="900" viewBox="0 0 1440 900" fill="none" xmlns="http://www.w3.org/2000/svg">
<g clip-path="url(#clip0_109_10)">
<mask id="mask0_109_10" style="mask-type:luminance" maskUnits="userSpaceOnUse" x="0" y="0" width="1440" height="900">
<path d="M1440 0H0V900H1440V0Z" fill="white"/>
</mask>
<g mask="url(#mask0_109_10)">
<path d="M1440 0H0V900H1440V0Z" fill="#FDF3BA"/>
<path d="M0 564.589C108.741 565.42 216.045 537.304 308.042 479.323C400.552 421.019 482.772 340.238 519.432 237.216C554.803 137.817 516.906 32.239 504.415 -72.524C491.575 -180.212 511.512 -299.949 445.157 -385.731C377.992 -472.56 253.629 -478.667 154.224 -525.239C33.33 -581.879 -75.644 -731.194 -202.335 -689.088C-330.395 -646.527 -330.537 -460.941 -395.362 -342.584C-444.548 -252.779 -521.991 -178.492 -537.428 -77.27C-552.933 24.397 -521.029 124.936 -481.118 219.719C-440.211 316.867 -390.703 413.226 -305.031 474.637C-217.093 537.672 -108.194 563.762 0 564.589Z" fill="#FBE465"/>
<path d="M1440 1536.43C1561.68 1560.3 1692.03 1521.44 1794.45 1451.54C1895.61 1382.51 1971.48 1274.55 1998.71 1155.16C2023.86 1044.89 1944.68 941.411 1936.52 828.611C1927.45 703.291 2016.09 565.329 1948.37 459.491C1881.3 354.656 1733.45 338.814 1610.55 319.157C1498.68 301.264 1387.66 319.637 1279.23 352.463C1171.57 385.054 1059.57 421.542 987.386 507.808C915.706 593.474 906.061 710.416 887.544 820.569C868.59 933.323 823.5 1056.17 878.339 1156.5C932.841 1256.21 1070.8 1264.36 1164.92 1328.03C1262.18 1393.81 1324.78 1513.82 1440 1536.43Z" fill="white"/>
</g>
</g>
<defs>
<clipPath id="clip0_109_10">
<rect width="1440" height="900" fill="white"/>
</clipPath>
</defs>
</svg>
