<?xml version="1.0" encoding="utf-8"?>
<!-- Generator: Adobe Illustrator 23.0.1, SVG Export Plug-In . SVG Version: 6.00 Build 0)  -->
<svg version="1.1" id="logo-eu_x5F_liro_xA0_Imagem_1_"
	 xmlns="http://www.w3.org/2000/svg" xmlns:xlink="http://www.w3.org/1999/xlink" x="0px" y="0px" viewBox="0 0 1920 1080"
	 style="enable-background:new 0 0 1920 1080;" xml:space="preserve">
<style type="text/css">
	.st0{display:none;fill:#F1F1F1;}
	.st1{fill:#3E1F73;}
	.st2{fill:#FCF2B9;}
	.st3{fill:#FBDB5A;}
	.st4{fill:#FAF0B8;}
	.st5{fill:#F8D85D;}
</style>
<g>
	<path class="st0" d="M1043.5,1220.1c-402.3,0-804.5,0-1206.8,0.1c-4.7,0-5.8-1.1-5.8-5.8c0.1-451.1,0.1-902.3,0-1353.4
		c0-4.7,1.1-5.8,5.8-5.8c805,0.1,1609.9,0.1,2414.9,0c4.7,0,5.8,1.1,5.8,5.8c-0.1,451.1-0.1,902.3,0,1353.4c0,4.7-1.1,5.8-5.8,5.8
		C1848.9,1220.1,1446.2,1220.1,1043.5,1220.1z M217.3,482.5c-1.1,1.9-2.6,1.9-4,2.3c-11.2,2.9-22.5,5.5-33.5,9
		c-58.6,18.8-109.5,48.8-144.5,101.1c-13.9,20.8-22,44.2-25.9,68.8c-2.5,15.9-2,32.1-1.5,48.2c0.7,19.5,5.5,37.7,15.5,54.6
		c5.2,8.8,13.4,9.9,20.4,2.5c10.3-10.8,17.5-23.9,26-36c18.9-26.9,37.4-54.1,62.2-76.2c8.6-7.6,18-14,29.7-14.1
		c9.8-0.1,19.4-1.2,29-2.8c27.6-4.7,54.6-12,81.2-20.7c8.5-2.8,7.9-5.1,10.4,6.1c0.1,0.4,0,0.8,0.1,1.3c3.6,20.6,9.9,40.2,20.8,58.3
		c10.3,17,23.1,32,35.8,47.1c13.2,15.7,26.6,31.3,40.4,46.5c11,12.1,22.4,23.8,34,35.3c19.7,19.7,39.4,39.4,61.4,56.7
		c5.7,4.5,12,7.6,18.4,10.5c5.6,2.5,13.8-2,17.3-9.1c8.8-17.4,10.8-36.6,13.7-55.4c5.1-33,6.6-66.3,7.6-99.6
		c0.7-22.7,0.3-45.5,0-68.2c-0.1-10.9-0.9-21.8-1.7-32.7c-0.9-12.3-2-24.6-3.2-36.9c-0.4-4.4,1.2-6.4,5.7-5.8c1.7,0.2,3.4,0.1,5,0.2
		c24.5,1.3,48.2-2.7,71.1-11.4c20.3-7.7,41.3-9,62.4-4c13.6,3.2,26.3,9.3,38.8,15.6c20.8,10.5,40,23.4,58.2,38
		c10.2,8.2,20.2,16.5,29.6,25.6c3.4,3.2,7.6,5.8,12.6,2.8c4.4-2.5,6.2-6.1,6.2-11.4c0-28.2-4.5-55.8-13-82.5
		c-8.4-26.2-20.4-50.7-39.4-71.1c-36.1-38.8-83.2-51.9-133.6-57.1c-14.9-1.5-29.8-2.3-44.7-1.6c-3.3,0.2-3.7-1.1-2.2-3.6
		c0.7-1.3,1.4-2.5,2.1-3.8c13.5-22,25.3-44.8,35.2-68.7c9.4-22.7,16.8-45.9,22.7-69.7c5.5-22.3,17-41,35-55.7
		c3.7-3.1,7.7-6.4,6.1-12.1c-1.3-4.6-4.7-7.4-9.4-8.3c-20.1-4.1-40.3-5.2-60.6-2.3c-30.7,4.3-59.9,13.3-87.4,27.9
		c-22.5,11.9-43.8,25.7-62.8,42.9c-9.1,8.3-10.8,7.8-17.2-3.2c-8.3-14.2-18.3-27.1-32.2-36.3c-19.1-12.6-38.8-16-59.7-3.8
		c-10.7,6.3-18.1,16.1-25.5,25.4c-14,17.4-30.6,27.9-53.6,27.8c-12.1-0.1-24.3,1.3-36.4,2.6c-11.1,1.2-19.5,6.4-24.2,17.3
		c-4,9.2-4.5,18.7-4.3,28.4c0.2,9.3-1.5,8.3-8.6,5.5c-18.5-7.3-37.4-11-57.5-8.6c-25,2.9-46.5,13.5-65.2,29.6
		c-14.7,12.7-30.3,22.6-49.9,24.8c-5.1,0.6-8.3,3.3-10.4,7.7c-7.6,15.3-8.9,31.9-6.6,48.1c2.9,20.9,12.7,39,28.5,53.5
		c3.9,3.6,8,4.3,12.7,3.1c5.1-1.3,6.7-5.4,7.1-10.1c0.3-3.4,0.2-6.7,0.6-10.1c1.6-17,6-33,15.7-47.4c3.7-5.5,7.7-7.2,13.8-4.3
		c4.2,2,8.6,3.4,12.9,5.1c30.5,12.2,60.4,25.5,87.9,43.8C201.5,467.8,210.2,474.4,217.3,482.5z M963.1,721.3
		c-5.2-0.3-9.8-1-14.2,2.1c-19.8,13.7-41.6,21.8-65.7,23.1c-5,0.3-4.9,3.9-5.7,6.6c-1.1,3.7,2.4,2.8,4.4,3.3
		c10.2,2.4,15.5,7.2,16.1,14.5c0.6,8.9-1.8,17.5-3.1,26.2c-2.4,16.7-8.5,32.8-4.6,50.2c2.4,11.1,7.3,19.9,17.3,25.3
		c18.3,9.9,37.3,9,56.3,2.6c10.9-3.7,20.1-10,28.1-18.2c2.2-2.2,3.1-3.7,4.5,1c1.1,3.5,1.8,7.5,4.7,10.6c6.1,6.5,13.5,8.9,22.1,10.5
		c19.3,3.6,34.8-2.6,47.4-16.8c1.9-2.2,7-4.6,3.9-8.6c-3.9-5.2-6.2,1.3-9.1,2.4c-3.2,1.2-5.7,3.8-9.7,1.7c-4.2-2.2-4.2-5.8-4.3-9.6
		c-0.2-13.3,3.5-26,5.7-39c4.6-26.9,9.8-53.7,14.5-80.6c0.4-2.3,3.5-5.6,0.2-7.3c-2.3-1.2-5.8-0.3-8.7,0c-1.1,0.1-2,1.3-3,2
		c-11.4,6.9-23,13.1-35.8,17.2c-10.2,3.3-20.5,5.9-31.2,6.1c-5,0.1-5,4-5.8,6.7c-1.1,3.8,2.8,2.2,4.5,3.2c3,1.9,6.6,1,9.8,3.3
		c8.2,5.9,6.6,14.4,5.7,21.8c-1.5,13.2-4.4,26.3-7.6,39.2c-3,11.9-8.1,22.7-20.1,28.7c-14.1,7.1-30.1,1.5-33.9-12.1
		c-2-7.3-1.3-14.7,0-21.8C951.2,784.1,957.3,752.9,963.1,721.3z M1220.3,876.4c32.6,0,65.3-0.1,97.9,0.1c4.4,0,5.9-1.7,6.2-5.5
		c1.4-20.3,2.8-40.6,3.9-60.9c0.1-1.8,2.5-5.6-2.1-5.7c-3.7-0.1-8.5-1.9-10,3.6c-2.7,9.7-6.8,18.8-12,27.3
		c-10,16.4-23.2,28.1-43.8,28c-16.2-0.1-32.4-0.3-48.6,0.1c-5.7,0.1-7-1.6-7-7.1c0.2-52.4,0.1-104.9,0.2-157.3
		c0-6.9,0.1-13.9,0.9-20.8c1.8-16,8.7-25.2,25.5-27.3c4.3-0.5,5.4-2.1,5.3-6.3c-0.2-5.2-3.7-3.6-6.2-3.6c-36-0.1-72-0.1-108-0.1
		c-0.8,0-1.7,0-2.5,0c-5.2-0.1-3,3.9-3.4,6.4c-0.4,2.7,0.4,4.2,3.7,4.1c10.7-0.1,18.3,4.9,23,14.5c4,8.2,4.8,16.9,4.8,25.7
		c0.1,41.1,0.1,82.1,0,123.2c0,8.1,0.1,16.2-1.3,24.3c-2.7,16.4-9.4,24.6-25.1,27.5c-3.9,0.7-5.6,2.2-5.3,6.5c0.4,4.8,3.7,3.2,6,3.2
		C1155,876.5,1187.6,876.4,1220.3,876.4z M754.9,879.2c13.8,0.3,24.1-0.4,34-3.7c23.6-7.9,41.9-22.8,55.9-43.2
		c1.4-2.1,3.3-3.6,0.5-6.3c-2.8-2.6-4.8-1.3-7.1,0.4c-19.2,15-40.7,20.5-64.7,15.9c-15.6-3-27.4-14.6-30-29.8
		c-0.5-2.9-1.5-6.2,4.2-5.9c4.6,0.2,9.2-1.8,13.8-2.6c13.5-2.3,27.1-4.1,40.6-6.2c15.1-2.3,29.9-5.9,45.2-7.4c2.1-0.2,3-1.2,3.3-3
		c4.3-23.4,1-48.1-27.4-60.3c-17.1-7.4-35.1-7.6-53-4.7c-24.8,4-46.4,13.9-62.8,34.1c-17.1,20.9-23.4,44.3-19.4,70.6
		c2.5,16.8,11.2,30.1,25.2,39.6C726.8,876,742.1,879.8,754.9,879.2z M1499.1,876.4c11.8,0,23.6,0,35.4,0c1.8,0,3.8,0.6,3.9-2.6
		c0-2.8-1.2-3.4-3.7-3.7c-9-1.2-13.3-5.2-15.4-13.9c-2.5-10.2-0.9-20.5-1.1-30.7c-0.3-12.3-0.1-12.2,12.3-12.4c3,0,6-0.4,7.3,3.2
		c2.9,8.5,8.2,15.7,12.3,23.6c4.6,8.8,8.2,18.1,13.7,26.4c3.6,5.5,8.4,9.6,14.8,9.8c15.3,0.5,30.7,0.2,46.1,0.3
		c1.6,0,3.5,0.3,3.4-2.4c-0.1-2,0-3.7-2.8-3.9c-11.7-0.5-19-7.9-24.8-16.9c-8.8-13.7-17-27.7-25.8-41.4c-2.6-4.1-4.7-6.5,2.2-8.1
		c3.4-0.8,6.3-4,9.2-6.4c18.3-14.7,16.5-46.9-2.3-59.5c-9.9-6.6-20.9-10.4-32.5-11.8c-29.1-3.4-58.3-2.1-87.5-2.3
		c-2,0-3.8-0.1-3.8,2.8c0.1,2.3,0.4,4.1,3.3,4.4c13.2,1.4,17.3,8.2,17.7,20.1c0.9,32.8,0.8,65.7,0.1,98.5
		c-0.3,12.5-5.9,18.4-16.8,20.5c-2.4,0.5-4.5,0.3-4.3,3.8c0.2,3.7,2.8,2.5,4.5,2.5C1475.9,876.5,1487.5,876.4,1499.1,876.4z
		 M1831,878.3c8-0.5,16.1-0.7,24-3c20.7-6.1,36.4-18.3,46.5-37.2c8.4-15.7,11.1-32.6,8.2-50.4c-3.3-19.8-11.9-36.6-28-48.7
		c-20.9-15.8-44.8-19.9-70.2-14.8c-27.6,5.5-46.8,21.6-56.7,47.9c-5.9,15.6-6.1,32.1-2.5,48.1c2.8,12.3,8.5,23.7,17.3,33.2
		C1786.3,871.2,1807,878.8,1831,878.3z M1689.9,876.4c11.6,0,23.2,0,34.7,0c1.8,0,4.4,1.2,4.5-2.5c0.1-3.4-1.8-3.5-4.3-3.8
		c-6.9-0.6-11.5-4.4-13.9-10.9c-1.8-5-2-10.2-2-15.5c0-28.8,0-57.7,0-86.5c0-4.2,0.4-8.4,1.1-12.5c1.4-8,7.3-13.6,14.8-13.7
		c2.7,0,4.2,0.1,4.3-3.3c0.1-3.9-2.1-3.8-4.8-3.8c-10.7,0.1-21.5,0-32.2,0c-12.4,0-24.8,0-37.3,0c-2.1,0-4.4-0.4-4.2,3
		c0.1,2.7,0.8,4.6,4.1,4c1.3-0.2,2.4,0.2,3.6,0.7c9.3,3.6,12.9,8.9,13.5,21.4c0.6,12.6,0.2,25.3,0.2,37.9c0,18.9,0.2,37.9-0.1,56.8
		c-0.2,12.4-5.9,21.6-18.2,22.6c-2.7,0.2-2.9,1.5-3,3.6c-0.1,3.2,2.1,2.5,3.9,2.5C1666.3,876.5,1678.1,876.4,1689.9,876.4z
		 M1394.8,876.4c11.8,0,23.6,0,35.4,0c1.8,0,4.4,1.2,4.5-2.5c0.1-3.4-1.8-3.5-4.3-3.8c-6.8-0.8-11.5-4.2-13.7-10.9
		c-1.7-5.1-2.1-10.3-2.1-15.5c0-28.8,0-57.7,0-86.5c0-3.4,0.3-6.7,0.8-10c1.4-10.2,5.4-14.4,15.8-16c2.8-0.4,3.4-1.8,3.5-4.2
		c0.1-2.7-1.4-3-3.5-3c-23.8,0-47.6,0-71.4,0c-2.2,0-3.7,0.3-3.5,3.1c0.1,2.1,0.5,3.6,2.9,4.1c13.7,3.1,18.4,8.7,18.5,22.7
		c0.2,14.1,0.1,28.2,0.1,42.3c0,17.5,0.3,35-0.2,52.4c-0.4,13-6.6,20.1-17,21.7c-2.5,0.4-4.5,0.3-4.3,3.8c0.2,3.7,2.8,2.5,4.5,2.5
		C1372.1,876.5,1383.5,876.4,1394.8,876.4z M1399.5,683.1c-4-0.4-7.5,1.7-9.5,5.2c-3.9,6.7-7.3,13.7-10.6,20.7
		c-1.2,2.5,0.5,5.5,2.2,4.8c9.2-4,19.4-6.4,26.2-14.6c2.3-2.8,3.2-6.3,1.4-9.8C1407.3,685.6,1404.5,682.9,1399.5,683.1z"/>
	<path class="st1" d="M217.3,482.5c-7.1-8.1-15.8-14.7-24.9-20.8c-27.4-18.3-57.4-31.6-87.9-43.8c-4.3-1.7-8.7-3.2-12.9-5.1
		c-6.1-2.9-10.1-1.1-13.8,4.3c-9.6,14.4-14.1,30.4-15.7,47.4c-0.3,3.4-0.3,6.7-0.6,10.1c-0.4,4.7-2,8.8-7.1,10.1
		c-4.7,1.2-8.8,0.5-12.7-3.1c-15.7-14.6-25.6-32.7-28.5-53.5c-2.3-16.3-1-32.8,6.6-48.1c2.2-4.4,5.3-7.1,10.4-7.7
		c19.6-2.2,35.2-12.1,49.9-24.8c18.6-16.2,40.2-26.7,65.2-29.6c20.1-2.4,39,1.3,57.5,8.6c7.1,2.8,8.8,3.8,8.6-5.5
		c-0.2-9.7,0.3-19.2,4.3-28.4c4.7-10.9,13.1-16.1,24.2-17.3c12.1-1.3,24.3-2.7,36.4-2.6c23,0.1,39.5-10.4,53.6-27.8
		c7.5-9.2,14.8-19.1,25.5-25.4c20.8-12.2,40.6-8.9,59.7,3.8c13.9,9.2,23.9,22.1,32.2,36.3c6.4,11,8.1,11.5,17.2,3.2
		c18.9-17.2,40.2-30.9,62.8-42.9c27.5-14.5,56.7-23.5,87.4-27.9c20.3-2.9,40.5-1.8,60.6,2.3c4.6,0.9,8.1,3.7,9.4,8.3
		c1.6,5.7-2.4,9-6.1,12.1c-17.9,14.7-29.4,33.4-35,55.7c-5.9,23.8-13.3,47-22.7,69.7c-9.9,23.9-21.7,46.7-35.2,68.7
		c-0.8,1.2-1.4,2.5-2.1,3.8c-1.5,2.6-1.1,3.8,2.2,3.6c14.9-0.8,29.8,0,44.7,1.6c50.5,5.2,97.6,18.3,133.6,57.1
		c19,20.4,31,44.9,39.4,71.1c8.6,26.8,13.1,54.3,13,82.5c0,5.3-1.8,8.9-6.2,11.4c-5.1,3-9.2,0.4-12.6-2.8
		c-9.4-9-19.5-17.4-29.6-25.6c-18.1-14.6-37.3-27.5-58.2-38c-12.5-6.3-25.1-12.4-38.8-15.6c-21.1-4.9-42.1-3.6-62.4,4
		c-23,8.7-46.6,12.7-71.1,11.4c-1.7-0.1-3.4,0-5-0.2c-4.5-0.5-6.1,1.5-5.7,5.8c1.2,12.3,2.3,24.6,3.2,36.9
		c0.8,10.9,1.6,21.8,1.7,32.7c0.3,22.7,0.7,45.5,0,68.2c-1,33.3-2.5,66.6-7.6,99.6c-2.9,18.8-5,38-13.7,55.4
		c-3.6,7.1-11.8,11.7-17.3,9.1c-6.4-2.9-12.8-6.1-18.4-10.5c-22-17.3-41.7-37-61.4-56.7c-11.6-11.5-23-23.2-34-35.3
		c-13.8-15.2-27.2-30.8-40.4-46.5c-12.7-15.1-25.5-30.1-35.8-47.1c-11-18-17.2-37.7-20.8-58.3c-0.1-0.4,0-0.9-0.1-1.3
		c-2.5-11.2-2-8.9-10.4-6.1c-26.6,8.7-53.5,16.1-81.2,20.7c-9.6,1.6-19.2,2.7-29,2.8c-11.8,0.1-21.2,6.5-29.7,14.1
		c-24.8,22.1-43.3,49.3-62.2,76.2c-8.5,12.1-15.7,25.2-26,36c-7,7.4-15.2,6.3-20.4-2.5c-10-16.8-14.8-35.1-15.5-54.6
		c-0.6-16.1-1.1-32.3,1.5-48.2c3.9-24.6,12-48,25.9-68.8c35-52.3,85.9-82.3,144.5-101.1c11-3.5,22.3-6.1,33.5-9
		C214.7,484.4,216.2,484.4,217.3,482.5z M266.5,487.1c0.6,1.3,1.8,1.6,3,1.7c15.3,6,31.3,8.9,47.5,10.4c19.2,1.8,38.4,2.5,57.7,1.1
		c1.7-0.1,4.2,0.2,3.1-3c-1.1-6.6-6.7-10-10.6-14.5c-45.9-52.6-99.1-96.5-159.1-132.1c-32.1-19-64.8-18.5-97.5-0.4
		c-16.1,8.9-27.6,23.9-44.6,32.3c18.8,7.2,36.9,13.9,54.8,21c42.8,17,83.3,37.9,117.2,69.9c7.7,7.3,17.4,11.6,28.1,13.3L266.5,487.1
		z M267.1,344.5c-1-0.4-1.9-0.8-2.9-1.1c-7.2-2-10.2-5.3-9.4-10.5c0.9-5.4,5.4-8.5,12-8.9c4.6-0.2,8.5,2,12.8,2.6
		c12.3,7.8,23.4,17,33.1,27.9c17,19,32.1,39.4,46.7,60.3c1.5,2.1,2.3,5.1,5.7,5c0.9-2.3,0-4.2-0.6-6.2
		c-5.2-18.8-10.5-37.5-14.9-56.5c-3.6-15.5-5.6-31.3-8.4-47c0.5-6.5,0.7-13,1.5-19.4c1.2-9.4,3.2-18.7,10.6-25.5
		c5-4.6,9.6-4.9,13.9-1c4.1,3.7,4.4,7.9,0.5,13.4c-3,4.2-5.3,8.5-4.8,13.9c-3.5,12.3-1.4,24.6,0.5,36.9c4.7,31.4,14.1,61.7,23.2,92
		c0.4,1.3,0,3.1,2.2,3.3c1.2-1.2,0.6-2.7,0.6-4.1c0.8-23,4.4-45.5,12-67.3c5.9-16.9,14.6-32.5,23.4-48c1.8-2,3.7-4,5.3-6.2
		c10.7-13.9,11.4-8.6,2.1-25.1c-8.3-14.6-18.2-27.8-33.3-36.1c-15.8-8.7-29.1-6.7-41.2,6.7c-5.8,6.4-11.4,12.9-16.9,19.5
		c-12.4,14.7-27.9,23.8-46.8,27.3c-15.8,2.9-31.8,1.9-47.7,3.5c-8.8,0.9-11.6,3-13.7,11.7c-1.9,8.1-1.7,16.4-0.7,24.4
		c0.7,5.3-0.5,11.8,5.2,15.5c8.1,5.2,16.3,10.3,24.4,15.5c27.8,22,55.6,43.8,81.8,68.1c1-2.9-1-4.3-2.1-5.9
		c-4.1-6.1-8.3-12.1-12.6-18.1c-13.5-18.8-28.2-36.6-45.5-52.1C278.7,348.7,274.1,344.1,267.1,344.5z M75.1,690.7
		c1.4-1.5,2.9-3,4.2-4.6c11.7-14.7,23.3-29.3,37.5-41.8c13.3-11.7,27.5-21.3,46.3-21.8c37.2-0.9,72.2-12.3,107.2-23.1
		c7-2.1,10.2-7.3,10.7-14.7c0.5-6.5,1.5-12.9,3-19.2c3.9-16.4,12.2-30.3,24.5-41.8c1.3-1.3,3.3-2.2,2.7-4.6
		c-0.3-1.2-1.4-1.4-2.5-1.5c-12.8-0.8-25-5.2-37.7-6.7c-8.1-3.3-16.2-6.6-24.4-9.9c-2.8-1.1-5.7-1.3-8.7-0.7
		c-15.9,2.9-31.6,6.2-47.1,10.9c-40.4,12.3-78,30-109.3,58.9c-42.5,39.3-60,88.5-54.4,145.9c1.1,10.8,3.7,21.6,8.5,32.8
		C49.2,728.9,62.2,709.8,75.1,690.7z M543.7,460.8c-11.6,8.6-22.6,18.2-35.9,24.3c-3.3,1.5-3.9,3.8-2.2,7.2c2.4,4.9,4.6,9.9,6.5,15
		c4.3,11.6,7.4,23.6,9,35.9c0.8,6.1,3.5,10.2,10.4,10.4c2.5,0.1,5,0.5,7.5,0.6c23.4,1,45.9-4,67.7-11.9c25.8-9.3,51.7-9.4,77.7-1
		C723,553.7,756,575.9,787.2,601c1.7,1.3,3,4.3,5.6,2.9c2.9-1.6,1.6-4.4,0.8-6.8c0.2-13.8-3.8-26.9-7.5-39.9
		c-16-56.8-50.7-95.2-108.8-111.1c-35.5-9.8-71.5-11.1-107.9-9.3c-3.1,0.2-5.6,1.7-7.6,3.9C555.8,447.4,549.8,454.1,543.7,460.8z
		 M645.8,219.3c1.6-1.6,3.3-3.1,4.8-4.8c0.8-0.9,2.1-1.8,1.3-3.2c-0.7-1.4-2.2-0.7-3.4-0.8c-12-0.4-24-0.4-35.9,1.6
		c-40,6.7-76.5,22.1-109.5,45.4c-37.4,26.3-69.7,56.8-83.9,102.4c-3.8,12.2-7.1,24.2-6.7,37.2c1.5-2.2,2.7-4.6,3.7-7
		c7-16.9,15.8-32.9,26.2-48c4.2-6,8.4-12.1,13.8-17.2c3.7-3.5,7.8-3.8,11.8-0.4c3.9,3.2,5,7.1,2.6,11.7c-0.7,1.3-1.5,2.5-2.4,3.7
		c-24.3,31.8-41.1,67.1-48.8,106.6c-1.9,9.9-3.1,19.9-4.5,29.8c-0.3,2.3,0,4.7,2.2,6.2c2.6,1.7,4.3-0.5,6.1-1.6
		c3.6-2.1,7.2-4.4,10.8-6.5c2.8-1,5.5-2.1,8.3-3c13-4.2,26.1-6.6,39.5-1.9c6.2,2.2,11.7,1.6,17.5-1.4c19.4-10,35.4-24.2,49.1-40.9
		c31.5-38.4,52.1-82.6,67.3-129.4C624.4,270.9,629.6,243,645.8,219.3z M496.3,854.5c4.8-12.9,6.2-26.5,8-39.9
		c4.1-29.8,5.8-59.8,6.9-89.8c2.1-58.7,2-117.2-8-175.3c-2.9-17.2-7.1-34.1-15.3-49.6c-6-11.3-14.6-15.3-27.2-13.2
		c-9,1.5-17.2,4.9-25.2,9.2c-12.2,6.6-21.6,16.7-31.9,25.5c-15.7-1.8-31.5-2.6-47.2,0.1c-25.4,4.4-43.4,18.1-51.6,43.2
		c-2.8,8.4-4.1,17.2-4.8,25.9c-2.7,35.9,7.3,68.1,28.7,96.8c38.6,51.8,82.9,98.5,129.6,142.9c10.1,9.6,20.4,18.9,31.8,26.9
		C493.7,859.7,496.3,860.1,496.3,854.5z M43.8,452.5c3.2-14.3,6.7-27.1,13.4-38.8c6.3-11,6.3-11-5.7-14.7
		c-16.5-5-16.8-5.1-18.9,12.2C30.8,425.8,35.2,439.1,43.8,452.5z"/>
	<path class="st1" d="M963.1,721.3c-5.9,31.6-11.9,62.9-17.3,94.2c-1.2,7.1-2,14.5,0,21.8c3.8,13.6,19.8,19.2,33.9,12.1
		c12-6,17.2-16.8,20.1-28.7c3.2-12.9,6.1-26,7.6-39.2c0.9-7.4,2.5-15.9-5.7-21.8c-3.2-2.3-6.8-1.4-9.8-3.3c-1.6-1-5.5,0.6-4.5-3.2
		c0.8-2.8,0.8-6.7,5.8-6.7c10.7-0.2,21-2.8,31.2-6.1c12.8-4.1,24.4-10.3,35.8-17.2c1-0.6,2-1.9,3-2c2.9-0.3,6.4-1.1,8.7,0
		c3.3,1.6,0.2,4.9-0.2,7.3c-4.7,26.9-9.9,53.7-14.5,80.6c-2.2,12.9-5.9,25.7-5.7,39c0.1,3.8,0,7.4,4.3,9.6c4,2.1,6.4-0.5,9.7-1.7
		c2.9-1.1,5.2-7.6,9.1-2.4c3.1,4-2,6.4-3.9,8.6c-12.6,14.3-28.1,20.5-47.4,16.8c-8.5-1.6-16-4-22.1-10.5c-3-3.2-3.6-7.1-4.7-10.6
		c-1.5-4.7-2.4-3.2-4.5-1c-8,8.2-17.3,14.5-28.1,18.2c-19.1,6.5-38,7.3-56.3-2.6c-10.1-5.4-14.9-14.3-17.3-25.3
		c-3.8-17.4,2.2-33.5,4.6-50.2c1.2-8.7,3.7-17.3,3.1-26.2c-0.5-7.3-5.8-12.2-16.1-14.5c-2-0.5-5.5,0.5-4.4-3.3
		c0.8-2.7,0.7-6.4,5.7-6.6c24.1-1.2,45.9-9.4,65.7-23.1C953.3,720.3,957.9,720.9,963.1,721.3z"/>
	<path class="st1" d="M1220.3,876.4c-32.6,0-65.3,0-97.9-0.1c-2.3,0-5.6,1.7-6-3.2c-0.3-4.3,1.4-5.8,5.3-6.5
		c15.7-2.8,22.4-11.1,25.1-27.5c1.4-8.2,1.3-16.2,1.3-24.3c0.1-41.1,0.1-82.1,0-123.2c0-8.8-0.9-17.5-4.8-25.7
		c-4.7-9.7-12.3-14.6-23-14.5c-3.3,0-4.1-1.4-3.7-4.1c0.4-2.5-1.8-6.5,3.4-6.4c0.8,0,1.7,0,2.5,0c36,0,72,0,108,0.1
		c2.5,0,6-1.6,6.2,3.6c0.1,4.2-1,5.8-5.3,6.3c-16.8,2.1-23.8,11.3-25.5,27.3c-0.8,6.9-0.9,13.9-0.9,20.8
		c-0.1,52.4,0,104.9-0.2,157.3c0,5.5,1.3,7.2,7,7.1c16.2-0.4,32.4-0.1,48.6-0.1c20.6,0.1,33.8-11.6,43.8-28
		c5.2-8.5,9.3-17.6,12-27.3c1.5-5.5,6.3-3.7,10-3.6c4.5,0.1,2.2,3.9,2.1,5.7c-1.1,20.3-2.6,40.6-3.9,60.9c-0.3,3.8-1.8,5.5-6.2,5.5
		C1285.6,876.3,1252.9,876.4,1220.3,876.4z"/>
	<path class="st1" d="M754.9,879.2c-12.9,0.5-28.1-3.2-41.7-12.4c-14-9.5-22.7-22.8-25.2-39.6c-4-26.3,2.3-49.7,19.4-70.6
		c16.5-20.2,38-30.1,62.8-34.1c18-2.9,35.9-2.7,53,4.7c28.4,12.3,31.7,37,27.4,60.3c-0.3,1.8-1.2,2.8-3.3,3
		c-15.2,1.5-30.1,5.1-45.2,7.4c-13.5,2-27.1,3.8-40.6,6.2c-4.6,0.8-9.3,2.8-13.8,2.6c-5.6-0.2-4.7,3-4.2,5.9
		c2.6,15.2,14.4,26.8,30,29.8c24,4.6,45.5-0.9,64.7-15.9c2.2-1.7,4.2-3.1,7.1-0.4c2.9,2.7,1,4.2-0.5,6.3
		c-14,20.5-32.3,35.3-55.9,43.2C779,878.9,768.8,879.5,754.9,879.2z M804,759.6c0-1.9,0.1-3.8,0-5.7c-1-14.3-9.4-22.4-21.9-21.2
		c-6.4,0.6-12.2,2.9-17,7.4c-14.7,13.7-18.9,31.7-20.9,50.6c-0.4,3.4,1.9,2.7,3.6,2.4c16.6-2.7,33.2-5.5,49.8-8.2
		c2.4-0.4,3.6-1.5,4-4C802.6,773.8,803.9,766.8,804,759.6z"/>
	<path class="st1" d="M1499.1,876.4c-11.6,0-23.2,0-34.7-0.1c-1.7,0-4.4,1.3-4.5-2.5c-0.2-3.5,1.8-3.3,4.3-3.8
		c10.8-2.1,16.5-8.1,16.8-20.5c0.7-32.8,0.8-65.7-0.1-98.5c-0.3-11.9-4.5-18.7-17.7-20.1c-2.9-0.3-3.2-2.1-3.3-4.4
		c-0.1-2.9,1.8-2.8,3.8-2.8c29.2,0.2,58.4-1.1,87.5,2.3c11.6,1.3,22.6,5.1,32.5,11.8c18.8,12.6,20.6,44.8,2.3,59.5
		c-2.9,2.3-5.8,5.6-9.2,6.4c-6.9,1.6-4.8,4.1-2.2,8.1c8.8,13.7,17,27.7,25.8,41.4c5.8,9,13.1,16.4,24.8,16.9
		c2.8,0.1,2.7,1.9,2.8,3.9c0.1,2.7-1.8,2.4-3.4,2.4c-15.4,0-30.7,0.2-46.1-0.3c-6.4-0.2-11.2-4.3-14.8-9.8
		c-5.5-8.3-9.1-17.6-13.7-26.4c-4.1-7.9-9.4-15.1-12.3-23.6c-1.3-3.6-4.3-3.3-7.3-3.2c-12.4,0.2-12.7,0.1-12.3,12.4
		c0.3,10.2-1.4,20.6,1.1,30.7c2.1,8.7,6.4,12.7,15.4,13.9c2.5,0.3,3.7,0.9,3.7,3.7c0,3.2-2.1,2.6-3.9,2.6
		C1522.7,876.4,1510.9,876.4,1499.1,876.4z M1518,768.4c0,10.7,0.1,21.4-0.1,32.1c0,2.9,0.7,3.9,3.8,4c24.6,1.1,39.3-13.9,37.6-38.5
		c-1-14-5.6-25.4-19.9-30.6c-5.6-2-11.5-2.1-17.4-2.8c-3.6-0.4-4.2,1.1-4.1,4.3C1518.1,747.4,1518,757.9,1518,768.4z"/>
	<path class="st1" d="M1831,878.3c-24.1,0.6-44.7-7.1-61.2-24.9c-8.8-9.5-14.5-20.9-17.3-33.2c-3.7-16-3.4-32.5,2.5-48.1
		c9.9-26.3,29.1-42.5,56.7-47.9c25.4-5,49.2-1,70.2,14.8c16.1,12.2,24.7,28.9,28,48.7c3,17.8,0.2,34.7-8.2,50.4
		c-10.1,18.9-25.9,31.1-46.5,37.2C1847.2,877.6,1839.1,877.8,1831,878.3z M1872.1,800.9c-0.5-6.5-0.7-13-1.6-19.5
		c-1.9-13.6-5.2-26.9-14-38c-13.8-17.3-37.1-17.4-51-0.2c-4.4,5.4-7.6,11.6-9.7,18.3c-6.1,18.8-7,38-4.6,57.4
		c1.6,12.6,4.7,24.8,12,35.5c14.3,21.1,40.8,21.2,55.2,0.2c3.6-5.2,6.2-10.9,8.1-17C1870.2,825.7,1871.7,813.4,1872.1,800.9z"/>
	<path class="st1" d="M1689.9,876.4c-11.8,0-23.6,0-35.4,0c-1.8,0-4,0.7-3.9-2.5c0.1-2.2,0.3-3.4,3-3.6c12.3-1,18-10.2,18.2-22.6
		c0.3-18.9,0.1-37.9,0.1-56.8c0-12.6,0.5-25.3-0.2-37.9c-0.6-12.5-4.3-17.8-13.5-21.4c-1.2-0.5-2.3-0.9-3.6-0.7
		c-3.3,0.6-3.9-1.3-4.1-4c-0.2-3.4,2.2-3,4.2-3c12.4,0,24.8,0,37.3,0c10.7,0,21.5,0,32.2,0c2.7,0,4.9-0.1,4.8,3.8
		c-0.1,3.5-1.5,3.3-4.3,3.3c-7.5,0.1-13.4,5.7-14.8,13.7c-0.7,4.1-1.1,8.4-1.1,12.5c-0.1,28.8-0.1,57.7,0,86.5
		c0,5.2,0.2,10.5,2,15.5c2.4,6.5,7,10.3,13.9,10.9c2.5,0.2,4.4,0.3,4.3,3.8c-0.1,3.7-2.7,2.5-4.5,2.5
		C1713,876.5,1701.5,876.4,1689.9,876.4z"/>
	<path class="st1" d="M1394.8,876.4c-11.4,0-22.7,0-34.1-0.1c-1.7,0-4.4,1.2-4.5-2.5c-0.2-3.5,1.8-3.4,4.3-3.8
		c10.4-1.6,16.6-8.7,17-21.7c0.5-17.5,0.2-34.9,0.2-52.4c0-14.1,0.1-28.2-0.1-42.3c-0.2-14-4.8-19.6-18.5-22.7
		c-2.4-0.5-2.8-2-2.9-4.1c-0.1-2.7,1.4-3.1,3.5-3.1c23.8,0,47.6,0,71.4,0c2.2,0,3.7,0.3,3.5,3c-0.1,2.4-0.7,3.8-3.5,4.2
		c-10.3,1.6-14.4,5.7-15.8,16c-0.5,3.3-0.8,6.7-0.8,10c-0.1,28.8-0.1,57.7,0,86.5c0,5.3,0.4,10.4,2.1,15.5
		c2.2,6.8,6.9,10.2,13.7,10.9c2.5,0.3,4.4,0.3,4.3,3.8c-0.1,3.7-2.7,2.5-4.5,2.5C1418.4,876.5,1406.6,876.4,1394.8,876.4z"/>
	<path class="st1" d="M1399.5,683.1c5-0.2,7.8,2.5,9.7,6.2c1.8,3.5,0.9,7-1.4,9.8c-6.8,8.2-17,10.6-26.2,14.6
		c-1.7,0.8-3.4-2.3-2.2-4.8c3.4-7,6.7-14,10.6-20.7C1392,684.7,1395.5,682.6,1399.5,683.1z"/>
	<path class="st2" d="M496.3,854.5c0,5.7-2.6,5.3-6.2,2.7c-11.4-8-21.7-17.3-31.8-26.9c-46.7-44.4-91.1-91.1-129.6-142.9
		c-21.4-28.7-31.4-60.9-28.7-96.8c0.7-8.8,2-17.5,4.8-25.9c8.3-25.1,26.3-38.8,51.6-43.2c15.6-2.7,31.4-2,47.1-0.1
		c0.8,3.5,1.4,7,2.3,10.4c7.8,27.7,15.7,55.4,23.4,83.1C451.7,694.7,474,774.6,496.3,854.5z"/>
	<path class="st3" d="M496.3,854.5c-22.3-79.9-44.6-159.8-67-239.6c-7.8-27.7-15.6-55.4-23.4-83.1c-1-3.4-1.6-6.9-2.3-10.4
		c10.3-8.9,19.7-18.9,31.9-25.5c8-4.3,16.2-7.7,25.2-9.2c12.5-2.1,21.2,1.9,27.2,13.2c8.2,15.6,12.3,32.4,15.3,49.6
		c10,58.1,10.1,116.7,8,175.3c-1.1,30-2.8,60-6.9,89.8C502.5,828,501.1,841.6,496.3,854.5z"/>
	<path class="st3" d="M645.8,219.3c-16.1,23.7-21.4,51.6-30.1,78.2c-15.3,46.8-35.8,91-67.3,129.4c-13.7,16.7-29.7,30.9-49.1,40.9
		c-5.8,3-11.3,3.6-17.5,1.4c-13.4-4.7-26.5-2.4-39.5,1.9c-2.8,0.9-5.5,2-8.3,3c0.1-1,0.1-2.1,0.3-3.1c6-24.3,15.1-47.5,24.2-70.8
		c18.7-47.8,49.9-85.6,89.5-117.4c26.3-21.1,54.5-39.3,82.8-57.5C635.3,222.5,639.9,219.2,645.8,219.3z"/>
	<path class="st3" d="M793.7,597.1c0.7,2.4,2.1,5.2-0.8,6.8c-2.7,1.4-4-1.5-5.6-2.9c-31.3-25.1-64.2-47.3-102.8-59.8
		c-26-8.4-51.9-8.4-77.7,1c-21.9,7.9-44.3,12.9-67.7,11.9c-2.5-0.1-5-0.5-7.5-0.6c-6.8-0.2-9.5-4.3-10.4-10.4
		c-1.7-12.3-4.7-24.2-9-35.9c-1.9-5.1-4.1-10.1-6.5-15c-1.7-3.4-1.1-5.6,2.2-7.2c13.3-6.1,24.3-15.7,35.9-24.3
		c6.5-0.1,13-0.9,19.4-1.1c27.3-1.1,54.4,0.4,81,7.4c57.3,14.9,102.1,46.7,132.4,97.9C782.8,575.4,788,586.4,793.7,597.1z"/>
	<path class="st4" d="M266.1,487c-10.6-1.7-20.4-6.1-28.1-13.3c-33.9-32.1-74.4-52.9-117.2-69.9c-17.9-7.1-36-13.8-54.8-21
		c17-8.4,28.4-23.4,44.6-32.3c32.7-18.1,65.4-18.7,97.5,0.4c60,35.6,113.2,79.5,159.1,132.1c3.9,4.5,9.5,7.8,10.6,14.5
		c-37.7-17-72.8-38.4-107.1-61.3c-26.9-18-53.2-37-82.4-51.3c-2-1-3.9-3-7.7-1.5c17.6,15,33.7,30.4,46.6,48.6
		C240.4,450.2,253.2,468.6,266.1,487z"/>
	<path class="st3" d="M270.9,511c12.7,1.5,24.9,5.9,37.7,6.7c1.1,0.1,2.2,0.3,2.5,1.5c0.6,2.3-1.3,3.3-2.7,4.6
		c-12.3,11.5-20.6,25.4-24.5,41.8c-1.5,6.3-2.5,12.8-3,19.2c-0.6,7.4-3.7,12.6-10.7,14.7c-35.1,10.8-70.1,22.2-107.2,23.1
		c-18.8,0.4-32.9,10.1-46.3,21.8c-14.2,12.4-25.8,27.1-37.5,41.8c-1.3,1.6-2.8,3.1-4.2,4.6c-0.9-13.5,4.4-25.9,7.5-38.6
		c10.9-44.4,36.2-76.8,78-96.9C196.5,538,233.3,523.6,270.9,511z"/>
	<path class="st4" d="M645.8,219.3c-5.9-0.1-10.5,3.2-15,6.1c-28.2,18.2-56.5,36.4-82.8,57.5c-39.6,31.8-70.8,69.6-89.5,117.4
		c-9.1,23.3-18.2,46.5-24.2,70.8c-0.2,1-0.2,2.1-0.3,3.1c-3.6,2.2-7.1,4.4-10.8,6.5c-1.9,1.1-3.5,3.3-6.1,1.6
		c-2.3-1.5-2.6-3.8-2.2-6.2c1.4-10,2.6-20,4.5-29.8c7.6-39.4,24.4-74.7,48.8-106.6c0.9-1.2,1.7-2.4,2.4-3.7
		c2.4-4.6,1.3-8.5-2.6-11.7c-4.1-3.4-8.1-3.2-11.8,0.4c-5.4,5.1-9.6,11.2-13.8,17.2c-10.5,15-19.2,31.1-26.2,48
		c-1,2.4-2.1,4.8-3.7,7c-0.4-12.9,2.9-25,6.7-37.2c14.2-45.5,46.5-76,83.9-102.4c33.1-23.3,69.6-38.6,109.5-45.4
		c11.9-2,23.9-1.9,35.9-1.6c1.2,0,2.7-0.6,3.4,0.8c0.7,1.4-0.5,2.3-1.3,3.2C649,216.2,647.4,217.7,645.8,219.3z"/>
	<path class="st4" d="M270.9,511c-37.6,12.6-74.4,27-110.3,44.2c-41.8,20.1-67.1,52.5-78,96.9c-3.1,12.7-8.4,25.1-7.5,38.6
		c-12.9,19.1-25.9,38.2-39.4,58.1c-4.9-11.2-7.5-21.9-8.5-32.8C21.5,658.7,39,609.5,81.5,570.2c31.3-28.9,68.9-46.6,109.3-58.9
		c15.4-4.7,31.2-8,47.1-10.9c3-0.5,5.9-0.4,8.7,0.7C254.7,504.4,262.8,507.7,270.9,511z"/>
	<path class="st4" d="M279.6,326.6c-4.3-0.6-8.3-2.8-12.8-2.6c-6.6,0.3-11.1,3.5-12,8.9c-0.8,5.1,2.2,8.5,9.4,10.5
		c1,0.3,2,0.7,2.9,1.1c-1.2,5.6-4.8,10.5-5.3,16.4c-8.2-5.1-16.3-10.2-24.4-15.5c-5.7-3.7-4.5-10.2-5.2-15.5
		c-1.1-8.1-1.3-16.3,0.7-24.4c2.1-8.7,4.9-10.8,13.7-11.7c15.9-1.6,31.9-0.6,47.7-3.5c18.9-3.5,34.4-12.7,46.8-27.3
		c5.6-6.6,11.1-13.2,16.9-19.5c12.1-13.3,25.4-15.4,41.2-6.7c15.1,8.3,25,21.5,33.3,36.1c9.3,16.5,8.6,11.2-2.1,25.1
		c-1.7,2.1-3.5,4.1-5.3,6.2c-8.1-14.6-28.7-23.7-45.5-19.6c-5.8,1.4-12.2,1.5-16.4,6.9c-0.6-5.4,1.8-9.7,4.8-13.9
		c3.9-5.5,3.6-9.7-0.5-13.4c-4.3-3.9-8.9-3.6-13.9,1c-7.4,6.9-9.4,16.1-10.6,25.5c-0.8,6.4-1,13-1.5,19.4
		c-15.1,4.4-30.7,5.6-46.3,6.8C288.4,317.2,282.5,319.8,279.6,326.6z"/>
	<path class="st4" d="M793.7,597.1c-5.7-10.7-11-21.7-17.1-32.2c-30.3-51.2-75.1-83-132.4-97.9c-26.6-6.9-53.7-8.5-81-7.4
		c-6.5,0.3-12.9,1-19.4,1.1c6.1-6.7,12.1-13.4,18.2-20c2.1-2.3,4.6-3.8,7.6-3.9c36.4-1.8,72.4-0.5,107.9,9.3
		c58.1,16,92.8,54.3,108.8,111.1C789.9,570.3,793.9,583.3,793.7,597.1z"/>
	<path class="st3" d="M266.1,487c-12.9-18.4-25.8-36.8-38.8-55.1c-12.9-18.3-29.1-33.6-46.6-48.6c3.8-1.4,5.7,0.6,7.7,1.5
		c29.2,14.3,55.4,33.3,82.4,51.3c34.3,22.9,69.4,44.3,107.1,61.3c1.1,3.2-1.4,2.8-3.1,3c-19.3,1.4-38.5,0.7-57.7-1.1
		c-16.2-1.5-32.2-4.5-47.5-10.4c-0.5-1.5-1.7-1.8-3-1.7L266.1,487z"/>
	<path class="st5" d="M363.2,291.3c4.1-5.4,10.6-5.5,16.4-6.9c16.8-4,37.4,5,45.5,19.6c-8.8,15.5-17.5,31-23.4,48
		c-7.6,21.8-11.2,44.3-12,67.3c0,1.4,0.5,2.9-0.6,4.1c-2.2-0.1-1.8-2-2.2-3.3c-9.1-30.3-18.4-60.6-23.2-92
		C361.8,316,359.7,303.7,363.2,291.3z"/>
	<path class="st5" d="M279.6,326.6c2.9-6.8,8.9-9.4,15.5-9.9c15.6-1.1,31.2-2.4,46.3-6.8c2.8,15.7,4.8,31.5,8.4,47
		c4.4,19,9.7,37.7,14.9,56.5c0.6,2,1.4,4,0.6,6.2c-3.5,0.1-4.3-2.9-5.7-5c-14.6-20.9-29.8-41.3-46.7-60.3
		C303,343.6,291.9,334.4,279.6,326.6z"/>
	<path class="st5" d="M261.8,360.8c0.5-5.9,4.1-10.7,5.3-16.4c7-0.3,11.6,4.2,16.3,8.4c17.3,15.5,32,33.3,45.5,52.1
		c4.3,6,8.5,12,12.6,18.1c1.1,1.6,3.1,3,2.1,5.9C317.4,404.7,289.6,382.8,261.8,360.8z"/>
	<path class="st5" d="M43.8,452.5c-8.6-13.3-12.9-26.6-11.2-41.3C34.7,394,35.1,394,51.5,399c12,3.7,12,3.7,5.7,14.7
		C50.5,425.4,47,438.2,43.8,452.5z"/>
	<path class="st4" d="M266.5,487.1c1.4-0.1,2.5,0.2,3,1.7C268.3,488.7,267.1,488.4,266.5,487.1z"/>
	<path class="st0" d="M804,759.6c0,7.2-1.4,14.2-2.6,21.2c-0.4,2.5-1.6,3.6-4,4c-16.6,2.7-33.2,5.5-49.8,8.2c-1.7,0.3-4,1-3.6-2.4
		c2-18.9,6.2-36.9,20.9-50.6c4.8-4.5,10.6-6.7,17-7.4c12.6-1.2,20.9,7,21.9,21.2C804.1,755.8,804,757.7,804,759.6z"/>
	<path class="st0" d="M1518,768.4c0-10.5,0.1-21-0.1-31.5c0-3.1,0.5-4.7,4.1-4.3c5.8,0.7,11.8,0.8,17.4,2.8
		c14.3,5.2,19,16.6,19.9,30.6c1.7,24.6-13,39.7-37.6,38.5c-3.1-0.1-3.9-1.1-3.8-4C1518.1,789.8,1518,779.1,1518,768.4z"/>
	<path class="st0" d="M1872.1,800.9c-0.4,12.5-1.9,24.8-5.6,36.7c-1.9,6.1-4.5,11.8-8.1,17c-14.5,21-40.9,20.9-55.2-0.2
		c-7.3-10.7-10.4-22.9-12-35.5c-2.5-19.4-1.5-38.6,4.6-57.4c2.2-6.7,5.3-12.8,9.7-18.3c13.9-17.3,37.2-17.2,51,0.2
		c8.9,11.1,12.1,24.3,14,38C1871.4,787.9,1871.6,794.4,1872.1,800.9z"/>
</g>
</svg>
