<svg xmlns="http://www.w3.org/2000/svg" viewBox="0 0 587.11 616.55"><defs><style>.cls-1{fill:#000;}</style></defs><title>Ativo 1</title><g id="Camada_2" data-name="Camada 2"><g id="logo-iara_Imagem" data-name="logo-iara Imagem"><path class="cls-1" d="M440.46,548.36a156.08,156.08,0,0,1-16.68,20.89c-19.19,20.57-42.4,34.65-69.26,42.78a114.12,114.12,0,0,1-28.4,4.38c-21.67.91-42.71-2.76-63.38-9a227.32,227.32,0,0,1-39.29-15.95,47.34,47.34,0,0,1-4.57-2.56c-7.5-5-15.4-9.41-23.15-14a60.66,60.66,0,0,1-11.4-8.51,4.41,4.41,0,0,1,2.26.31c6.82,2.76,13.81,5.06,20.83,7.22,2.5.77,5,1.79,7.72,1.88-2.54-1.85-4.29-4.57-7.59-5.49-4.64-1.3-9.2-2.91-13.73-4.56A171.33,171.33,0,0,1,173,557a.86.86,0,0,0-.62-.63l.06,0c-.65-.7-1.28-1.42-1.94-2.11l-13.26-13.63c.24-.36.59-.56,1-.35,6.75,3.82,13.73,7.18,20.81,10.34,5.2,2.34,10.48,4.49,15.83,6.49.59.22,1.22.72,1.77-.09-1.8-3.55-2.12-3.8-5.51-5-1.36-.48-2.66-1.14-4-1.67a247.79,247.79,0,0,1-29.27-14.12c-2.92-1.62-5.94-3.15-8.41-5.47-.21-.36-.27-.92-.92-.64l0,0c.52-.89-.29-1.4-.64-2A139,139,0,0,0,140,516.68c-5.37-7-10.65-14.09-15.54-21.46-6.46-9.71-12.45-19.68-16.67-30.61a107,107,0,0,1-7-39,240.58,240.58,0,0,0-1.64-26.15c-.76-6.94-2.18-13.79-2.8-20.76a96.54,96.54,0,0,0-1.87-13.83,8,8,0,0,1,.86-6,6.16,6.16,0,0,1,2.38,2.91q3.32,6.32,6.54,12.67c1.57,3.12,3.07,6.27,4.65,9.39.28.55.44,1.34,1.45,1.25a12.22,12.22,0,0,0,1.36-4,69.07,69.07,0,0,1,3.65-11.34c3.56-8.62,7.47-17,12.84-24.73,5.49-7.88,10.5-16.09,15.72-24.15a52.45,52.45,0,0,0,7.24-17.37c.41-1.85,1.09-3.72.74-5.71a3.74,3.74,0,0,0-3.55,1c-3.55,2.93-8,4.3-11.7,7a6.85,6.85,0,0,1-3,1.1c-7.58,1.12-15.13,2.26-22.88,1.38-11.76-1.33-22.11-9.18-25.18-20C82.15,276.13,85.17,265,95.25,257a16.22,16.22,0,0,1,9.87-3.78,15.9,15.9,0,0,1,12.32,5,1.82,1.82,0,0,1,.48,2.36,1.68,1.68,0,0,1-2,.69,15.61,15.61,0,0,0-4.92-.25,7,7,0,0,0-5.88,3.76c-3.84,7.47-.25,16.6,8.77,17.46a20.32,20.32,0,0,0,21.68-16.29,25.16,25.16,0,0,0-.82-11.8c-4-13.49-17.28-19.5-29.73-12.76a9.51,9.51,0,0,1-1.58.75,2.05,2.05,0,0,1-3-1.39,4.57,4.57,0,0,1,.85-4.64,14.4,14.4,0,0,1,8.1-5.35,29.36,29.36,0,0,1,15,.21c9.12,2.57,15.94,7.85,19.22,17a37.83,37.83,0,0,1,1.62,8,31.36,31.36,0,0,1-16.63,31.77c-7.85,4.17-15.83,4.1-23.55-.64A13.4,13.4,0,0,1,99,278.77a30.19,30.19,0,0,1-1.13-9.21c0-.56.13-1.25-.62-1.43s-1,.35-1.31.88a19.15,19.15,0,0,0-2.71,9.11c-.13,8.37,5.83,16.63,14.19,19.38a39.48,39.48,0,0,0,27.37-.68c9.09-3.54,14.43-10.24,16.1-19.78,1.42-8.12,1-16.25-.31-24.35-1.23-7.88-3.61-15.49-5.84-23.11a103.88,103.88,0,0,1-2.12-48.68,112,112,0,0,1,15.22-38.77c12.3-20,27.75-36.89,47.69-49.45C234.69,74.29,266.7,68,300.77,70.75a219.2,219.2,0,0,1,40.6,7.36c9.07,2.49,18.21,4.78,26.81,8.69a46.92,46.92,0,0,1,25.18,26.53c6.6,16.84,8.54,34.37,7.65,52.31a107.63,107.63,0,0,0-.24,11.64A28.2,28.2,0,0,0,413,199.73a72.37,72.37,0,0,0,7.91,4.91,21.68,21.68,0,0,1,3.87,2.57c3.66,3.1,4,5.81.9,9.49-1.36,1.64-3,3.08-4.36,4.69a8.53,8.53,0,0,0-1.33,10.24c.71,1.39,1.47,2.74,2.23,4.09,2,3.51,2,6.87-.89,9.91a2.77,2.77,0,0,0-.14,4.11,6.79,6.79,0,0,1,1.33,3.49c.31,2.66-.21,5-2.35,6.83-4.07,3.47-5.33,7.71-3.48,12.8a3.62,3.62,0,0,1,.2.55c1.33,6.31-.43,12.69-7.73,15.24a26.83,26.83,0,0,1-7.66,1.6c-5.55.26-11.05-.43-16.55-1a154.37,154.37,0,0,0-23.84-1,33.36,33.36,0,0,0-7.16,1.18,15.49,15.49,0,0,0-10.83,10.1,40.6,40.6,0,0,0-1.16,3.9,109.76,109.76,0,0,0-2.83,20.15,86.65,86.65,0,0,0-.11,15.7c1.07,9.64,5.38,14.77,14.76,17a59,59,0,0,0,10.36,1.45c9.89.6,19.8.45,29.7.67a76,76,0,0,1,19.26,2.66c14.12,4.06,23.38,12.91,27,27.36a71,71,0,0,1,1.35,24.89,129.58,129.58,0,0,1-15.68,49.3c-6.36,11.46-14,21.9-24.25,30.29-4.35,3.58-8.8,7.06-14,9.42-6.59,3-13.25,3.59-19.82-.19-.46-.27-1.14-.34-1-1.28a32.69,32.69,0,0,0,6.86,1c9.09.58,15.1-3.52,17.48-12a48.19,48.19,0,0,0,1.53-8.59,221.36,221.36,0,0,1,7.16-38.27,69.58,69.58,0,0,1,12.26-24.89,14.15,14.15,0,0,1,5.89-4.61c1.67-.67,2.19-.31,2,1.48-.36,3.38-.76,6.75-1.28,10.1-1.61,10.35-3.77,20.63-4.14,31.14-.05,1.31-.34,2.65.49,3.84.78-.26.88-.88,1.13-1.39,3.07-6.39,5.93-12.86,8.39-19.51,5.32-14.38,8.22-29.1,6.11-44.52a26,26,0,0,0-11.62-19A44.59,44.59,0,0,0,406,369.94c-5.38-1.5-10.92-1.73-16.42-2.22-11.5-1-23-1.81-34.51-3.06s-19.22-7.15-23-18.12c-.7-2-1.33-4.05-2-6.06-.21-.58-.14-1.44-1.2-1.49-2.38,4.77-1.83,10.39-4,15.26a33.46,33.46,0,0,1-.65-7,153.15,153.15,0,0,1,3-22.77,287.48,287.48,0,0,1,8.12-29.12c2-6.24.82-8.36-5.42-10.45a32.91,32.91,0,0,1-12.58-7.63c-.61-.58-1.05-1.42-2-1.55-.16.14-.39.24-.42.39a8.29,8.29,0,0,0-.24,1.71,82.07,82.07,0,0,1-1.83,16.75c-3.91,19.26-13.79,34.59-30.07,45.71a105.27,105.27,0,0,1-17.1,9.32c-11,4.85-22.42,8.71-33.73,12.78a38.9,38.9,0,0,0-7.17,3.17c-5.92,3.62-9.11,8.86-9.28,15.83a74.52,74.52,0,0,0,.6,12.49c1.71,11.94,6.61,22.24,15.38,30.6a58.58,58.58,0,0,0,10.46,7.87q15,8.94,30,17.9a197.72,197.72,0,0,1,19.91,13.68c12.76,9.89,22.73,21.91,28.66,37.08a9.84,9.84,0,0,0,2.15,3.83c.15-.91.27-1.44.31-2,.65-8.42,1.31-16.83,1.18-25.29a78.48,78.48,0,0,0-9.88-37.31c-.41-.75-1-1.47-.54-2.45,1.14.26,1.69,1.24,2.37,2a62.52,62.52,0,0,1,9.05,13.86,146.74,146.74,0,0,1,9.3,25.36c2.59,9.34,4.75,18.81,8.22,27.89a44.71,44.71,0,0,0,6,11.26c7.38,9.75,17,14.09,29.26,12,8.22-1.38,15.42-5.09,22.06-10,10.37-7.64,18-17.56,24.1-28.79a297.11,297.11,0,0,0,14.07-30c9.6-23.79,16.88-48.31,23.3-73.12,1.27-4.88,2.58-9.76,2.81-14.83a49.27,49.27,0,0,0-5.78-26.67,30.52,30.52,0,0,1-3.61-18.55,44.68,44.68,0,0,1,3.3-12c4.19-10.22,6.2-20.78,5-31.86-.49-4.54-1.64-9-2.35-13.47-1.36-8.72-2.44-17.49-4.16-26.14A92.46,92.46,0,0,1,455.43,221a4.72,4.72,0,0,1,.22-1.41,1.3,1.3,0,0,1,1.17-.75c.38,0,.68.34.82.72.23.64.46,1.28.63,1.94a64.17,64.17,0,0,0,4.54,12.57c5.19,10.64,9.66,21.6,14.59,32.36a97.55,97.55,0,0,1,6.43,18.36c1.92,8.22,3.68,16.47,3.74,25,0,5.31-2.59,9.44-5.47,13.5a2.13,2.13,0,0,1-3.78-1.75c0-.29.1-.57.15-.86a80.47,80.47,0,0,0-7-46.5c-.26-.55-.3-1.39-1.28-1.31a4.86,4.86,0,0,0-.23,3.1c.3,3.18.67,6.37.93,9.56a78.39,78.39,0,0,1-3.44,31.32,49.13,49.13,0,0,0-2.51,12.82,38.23,38.23,0,0,0,3.72,18.64A43.39,43.39,0,0,1,472.35,375c-.87,5.07-2.16,10-3.44,15-5.19,20.3-10.88,40.45-18.06,60.15a392.43,392.43,0,0,1-15.42,36.43c-.6,1.24-1.51,2.43-1.34,4,2-.49,1.72-3.16,3.7-3.49.53,1.16-.25,1.95-.59,2.81-6.24,15.67-15.51,29.49-26.13,42.48a246.84,246.84,0,0,1-18.38,19.48c-.71.69-1.7,1.25-1.83,2.58a10.63,10.63,0,0,0,6.32-2.07,69.93,69.93,0,0,0,9.07-7.29c.62-.59,1.09-1.4,2.05-1.54l.58.53c-2,2.25-3.51,4.86-5.65,7A73.35,73.35,0,0,1,385,564.52c-5.95,3.07-11.93,6.07-17.9,9.11a8,8,0,0,0-2.88,1.88,10.37,10.37,0,0,0,4.21-.19,91.71,91.71,0,0,0,10-3.09,43.79,43.79,0,0,1,7.75-2.42l.47.54c-.13,1.64-1.37,2.4-2.56,3.2s-2.62,1.58-3.37,3c-.35.18-1.07.24-.66.84s.79,0,1.15-.23A98,98,0,0,0,395,570.29c4-2.36,8.22-4.42,11.48-7.87a1.87,1.87,0,0,1,2.6-.51c1.47,1,2.05.17,2.61-1a12.11,12.11,0,0,1,2.26-3,112.84,112.84,0,0,0,19.13-27.32q8.61-17.18,16.37-34.75c12.59-28.66,22.88-58.08,29.63-88.69,2.67-12.12,5.08-24.3,7.93-36.38,3.77-16,9.23-31.44,18.44-45.3a36.37,36.37,0,0,0,5.06-12c.54-2.35,1.34-4.73.87-7.82-.68,1-1.07,1.5-1.41,2.05q-3.48,5.55-6.92,11.12a110.28,110.28,0,0,1-7.91,11.16,7.34,7.34,0,0,1-3.36,2.69c-1.76.57-2.35.12-2.11-1.67A33.69,33.69,0,0,1,493.51,320c3.27-6.28,6.45-12.61,10.57-18.41a22.37,22.37,0,0,0,2.24-4.07c2.92-6.87,5.78-13.76,8.64-20.66a34.18,34.18,0,0,0,2.32-10.17c.38-4.35.7-8.71,1.09-13.06.08-1-.07-2.07.93-2.94,1.28,2.9,2.52,5.63,3.71,8.38a62.87,62.87,0,0,1,4.57,34.46c-1.38,9.51-3.25,18.92-5.33,28.3-4.49,20.18-10.33,40-16.59,59.67-8.1,25.5-15.92,51.09-25,76.27-6.79,18.78-15.18,37-21.37,56a36.22,36.22,0,0,1-1.56,3.64,13.42,13.42,0,0,1-2.1,2.31c-5.64,4-11.34,7.93-17.3,11.4a12.55,12.55,0,0,0-5.51,6.66c-.27.1-.32.18-.13.22,0,0,.08-.15.13-.23a3.76,3.76,0,0,0,2.15-.64c5.31-3.14,10.55-6.38,15.66-9.84,1-.68,1.87-1.72,3.25-1.73-1.49,3.83-3.69,7.3-5.63,10.91-.42.77-1.44,2.77-1.61,3.09-1.37.9-2.71,1.85-4.11,2.69-5.82,3.47-11.68,6.84-17.79,9.78-2.51,1.2-3.86,3.39-5.43,6.19a41.14,41.14,0,0,0,6.39-2.65q6.48-3.56,13-7C439.2,548.24,439.8,547.54,440.46,548.36ZM173.83,324.23c-.17.2-.32.47-.1.65s.38-.07.45-.3c.28-.07.6-.3.46-.52C174.33,323.55,174.07,324,173.83,324.23Zm84.86-28.18-.75-.76a6.86,6.86,0,0,1,.42-.75A83.19,83.19,0,0,0,274,258a6.93,6.93,0,0,0,0-3.39,11.63,11.63,0,0,0-5.63,7.29,24.23,24.23,0,0,1-3.7,7.55,107.69,107.69,0,0,1-17.66,20.05,152,152,0,0,1-30.71,20.93c-8.87,4.61-17.77,9.14-26.77,13.48-15.46,7.46-28.5,18-39.8,30.79-3.79,4.29-7.49,8.66-11.29,12.94-16.54,18.6-25.26,40.2-25.17,65.22A61.41,61.41,0,0,0,116,450.92c.23.74.16,1.74,1.52,2.38v-2.64a143.28,143.28,0,0,1,1.12-16.54A87.08,87.08,0,0,1,138,388.72c12.77-15.7,29.34-26.06,47.75-33.75,6.17-2.58,12.48-4.82,18.72-7.22,14.94-5.75,29.86-11.51,44.28-18.5a73,73,0,0,0,19.67-13.84c10.93-10.84,17.48-24.07,21-38.91a77.49,77.49,0,0,0,1.49-7.7,21.76,21.76,0,0,0-2.13-12.5,5.24,5.24,0,0,0-1,2.7c-4.27,22-15.41,39.75-32.89,53.62a41,41,0,0,1-12.78,6.79c-1,.33-1.94.88-3.36.18,1.66-1.26,3.15-2.45,4.7-3.56,4.63-3.36,9.42-6.51,13.92-10.06,11.81-9.32,18.63-21.61,21.53-36.22a3.57,3.57,0,0,0-.52-3.42c-1.06,2.09-2,3.88-2.88,5.71a125.19,125.19,0,0,1-8.29,15A28.45,28.45,0,0,1,258.69,296.05ZM221.88,445.24l-.62.52c-3.12-1.22-5.63-3.4-8.23-5.39a55.17,55.17,0,0,1-19.49-27.26,63.48,63.48,0,0,1-2.82-20.36c0-1.17.36-2.44-.37-3.59-.27.19-.48.27-.56.42-.4.67-.78,1.34-1.12,2a46.38,46.38,0,0,0-4.58,19.08,73.1,73.1,0,0,0,3.75,24.6c2.76,8.79,6.45,17.24,9.68,25.85.61,1.61,1.35,3.18.92,5-.66,0-.83-.54-1.08-.92a103.6,103.6,0,0,1-9-16.26c-7.95-18-11.43-36.75-8.55-56.44.36-2.45,1.19-4.9.7-7.45.38.2.39,0,.31-.29l-.27.35c-2.51,2.22-3.54,5.26-4.35,8.33A92.32,92.32,0,0,0,173,415c-.11,4.76,0,9.52,0,14.27,0,.92-.09,1.83-.15,2.8-.38-.14-.65-.16-.69-.27a10.3,10.3,0,0,1-.6-1.91A91.24,91.24,0,0,1,170,415.14c0-5.75,1-11.39,1.58-17.09.06-.59.51-1.31-.46-1.77a6.51,6.51,0,0,0-1.64,3.33c-.28,1.33-.47,2.68-.7,4a80.53,80.53,0,0,0-1,23.19,18.87,18.87,0,0,1,.29,2.89c-.05,2-1.41,3-3.33,2.51-1.57-.37-1.43-1.66-1.55-2.77a107.17,107.17,0,0,1,3.65-41.5c.19-.69.72-1.37.15-2.18-1.05.31-1.49,1.24-2,2a46.66,46.66,0,0,0-8.19,19.41c-1.23,6.58-1.08,13.33-1.25,20a63.62,63.62,0,0,0,.46,8.72c.39,3.47,1.17,6.89,1.26,10.4,0,1.14-.12,2.22-1.53,2.38s-1.54-.93-1.89-1.83a16.07,16.07,0,0,1-.54-1.66,86.35,86.35,0,0,1-2.45-14c-.8-8.23-.51-16.49-.58-24.74,0-.69.37-1.53-.43-2.1-1.69,1.9-2.8,4.41-3.61,8-1.75,7.81-1.29,15.63-.27,23.46a189.05,189.05,0,0,0,4.57,23.1c.17.64.53,1.28-.29,1.81-1.84-.63-2.24-2.27-2.68-3.84-1.73-6.26-3-12.63-4.33-19-.29-1.36-.26-2.9-1.47-4.14a46.28,46.28,0,0,0-.9,17.78c.37,2.4.73,4.79,1.08,7.19.08.56.24,1.24-.48,1.5s-1.13-.25-1.44-.72c-1.11-1.69-2.3-3.33-2.61-5.45a72.08,72.08,0,0,1-.67-14.23c.34-6.59.76-13.18,1.11-19.77a4.16,4.16,0,0,0-.39-2.94,27,27,0,0,0-2.91,7.53c-3.59,14.6-3.32,29.23-.13,43.84.85,3.87,1.86,7.72,4.19,11.05.07.06.12.14.19.19s.1,0,.14,0c-.05-.2-.18-.23-.37-.1.49-1.37,0-2.67-.29-4-.72-3.51-1.61-7-1.5-10.63,0-.59-.34-1.4.64-1.7a14.54,14.54,0,0,1,3.64,5.19,44,44,0,0,1,2.21,6.3,138.33,138.33,0,0,0,26.29,48.86c10.59,12.75,22.78,23.85,35.24,34.69a153.81,153.81,0,0,0,26.43,18.49c22.19,12.28,46.33,18.55,71.07,22.94a8.15,8.15,0,0,0,4.06-.51c-.38-1-1.07-.9-1.59-1-7.8-2.33-15.64-4.51-23.59-6.3-15-3.39-29.43-8.54-42.55-16.78-6.16-3.86-12.16-8-18.15-12.12a67.78,67.78,0,0,1-12.3-11.08c-.61-.69-1.54-1.22-1.51-2.45,1.73-.3,2.65,1,3.69,1.89,10.21,9.15,21.48,16.93,32.54,25a6.58,6.58,0,0,0,2.83,1.44c1.19.19,2.49.2,2.8-1.32.36-1.78,1.61-1.69,2.88-1.59,1.79.13,3.29,1.1,4.86,1.84,1.09.51,2.16,1.23,3.44.71.1-1-.88-1.1-1.07-1.75l.14-1a41.07,41.07,0,0,1,5.65,1.35,64.07,64.07,0,0,0,12.8,2.62,6.94,6.94,0,0,0,4-.45c-1.64-2-3.91-2.12-5.78-3-1-.5-2.4-.58-3-1.59a2.91,2.91,0,0,0-2.66-1.36,2.12,2.12,0,0,1-2.25-2c17.85,3.77,35.56,6.49,53.87,4.85a4.34,4.34,0,0,0-2.84-1.18,42.87,42.87,0,0,0-10.42-.77,87.68,87.68,0,0,1-32-4.84c-2.84-1-5.52-2.67-8.42-3.16a23.06,23.06,0,0,1-8.34-3.46,9.46,9.46,0,0,0-1.91-.7c-3.85-1.32-7.71-2.63-11.55-4a20.15,20.15,0,0,1-2.14-.9,1.42,1.42,0,0,1-.88-1.39c.09-.85.8-.58,1.34-.67,1.94-.3,2.25-1,1.21-2.69a6.58,6.58,0,0,0-1.83-1.85c-1-.72-2.08-1.43-3.1-2.17-7.92-5.69-14.84-12.49-21.84-19.23a96.07,96.07,0,0,1-16.06-20.24,23.4,23.4,0,0,1-2.93-6.93c-.1-.49-.62-1,0-1.51.71.06.92.67,1.24,1.13a233.52,233.52,0,0,0,16.67,20.59c11.17,12.35,23.87,22.72,38.92,30.09,2.76,1.34,5.68,2.22,8.13,4.49a17.43,17.43,0,0,0,8.08,3.8c2.93.64,5.8,1.57,8.68,2.42a31,31,0,0,0,7.93,1.75c3.21.09,6.43,0,9.91,0a23.71,23.71,0,0,0-6.09-5.39c-2.21-1.41-4.52-2.65-6.78-4,2.08-.3,3.95,1,6.16,0a5.1,5.1,0,0,0-2.53-1.55,148.08,148.08,0,0,1-16.24-8.47A91.6,91.6,0,0,1,260,533.49c-.72-.67-1.48-1.37-1-2.5s1.65-1.21,2.73-1.12a7.42,7.42,0,0,1,3.42,1.5,163.67,163.67,0,0,0,17.69,10.1c8.9,4.37,18.22,7.15,28.21,7.29.69,0,1.5.24,2.06-.45-.14-.18-.18-.29-.25-.32a4.57,4.57,0,0,0-.8-.31A124.24,124.24,0,0,1,259.83,519,505.6,505.6,0,0,1,223,481.35a1.12,1.12,0,0,1-.25-1.18c2-.45,3.69.46,5.27,1.65a63,63,0,0,1,10,9.32c8.55,10,18.58,18.45,28.89,26.55,4.54,3.56,9.35,6.6,15,8.07a3,3,0,0,0,2.18,0c-.92-.81-1.56-1.38-2.21-1.94,0-.24,0-.47,0-.71a15.54,15.54,0,0,0,1.92.16c1.35,0,1.49-.78,1-1.85l0-.69a1.93,1.93,0,0,0,1.34-2.27c-.15-1.57.75-2.07,2.14-2,.87.06,1.74.21,2.61.23.71,0,1.56.46,2-.53-.35-.85-1.21-.87-1.89-1.11-2.37-.86-4.76-1.64-7.14-2.47a7.87,7.87,0,0,1-2.56-1.31q-14.76-12.3-29.56-24.54c-.43-.36-1-.64-.73-1.42,1.17-.5,2.23,0,3.31.44a61,61,0,0,1,10,5.35c2.11,1.37,4.22,2.76,6.36,4.1a28.43,28.43,0,0,0,11.72,4.05c1.48.19,1.92-.42,1.75-1.75,1.29-.56,1.27.8,1.71,1.3,3.39,3.82,7.76,5.27,12.72,5.45a50.11,50.11,0,0,0-14.76-11.23c-.53,1.45.23,2.34.53,3.32.13.44.49.88-.17,1.19-2.66-.62-3.84-2.83-4.87-4.95a26.35,26.35,0,0,0-9.25-10.21,182.38,182.38,0,0,0-40.43-21,43.2,43.2,0,0,1-9.37-4.62c-.41-.29-1.12-.49-.66-1.35a142.29,142.29,0,0,1,33.59,8.92,136.9,136.9,0,0,1,30.25,17.14c.7-3.31.39-4.06-1.67-6.41-7.65-8.69-16.84-15.45-26.69-21.4-6.22-3.75-12.57-7.32-18.59-11.42a77.3,77.3,0,0,1-18.61-17.43c-8.88-11.85-13.21-25.32-14.12-40-.13-2.2.05-4.44-.67-7a36.26,36.26,0,0,0-3,9.1c-4.58,19.71,0,36.86,14.37,51.26C216.92,440.61,219.42,442.9,221.88,445.24ZM187.43,208.57c.46,2.24-1.57,4.15-.92,6.58,2.37-.55,2.34-4,5-4a9.31,9.31,0,0,1-2.69,5c-8.55,9.66-13.84,21-17.13,33.35a6.84,6.84,0,0,0-.29,1.4,1,1,0,0,0,.47.65.76.76,0,0,0,1-.19,2.56,2.56,0,0,0,.49-1c.44-2.23,1.95-4,2.64-6.13.16-.5.59-1,1.3-.57.05.2.16.4.12.56-2.45,10.12-3.34,20.47-4.56,30.78-.51,4.33-.81,8.69-1.46,13a163.11,163.11,0,0,1-5.68,23.14c-3.48,11.38-8.55,21.86-17.35,30.19a10.24,10.24,0,0,0-2.17,3.08c-.26.54-1,1.09-.29,1.8a5.8,5.8,0,0,0,3.12-1.94c7.62-7.41,13.93-15.91,20.29-24.37a71.81,71.81,0,0,0,10.32-19.13,128.86,128.86,0,0,0,5.53-21.07,111.34,111.34,0,0,1,16.49-42.27c11.18-17.06,26-30.5,42.37-42.4.29-.21.58-.52,1-.3.32.53-.08.91-.36,1.24-1.51,1.78-3,3.53-4.59,5.27-5.95,6.68-12.64,12.62-19,18.93a103.69,103.69,0,0,0-23.55,35.71c-3.42,8.7-5.57,17.75-7.73,26.81-3.3,13.82-7.33,27.36-14.83,39.6-.25.4-.57.82-.19,1.3.19,0,.42.08.54,0,.7-.52,1.4-1,2.05-1.62a59.51,59.51,0,0,0,12.3-15.4,105.36,105.36,0,0,0,9.45-23.1c5.37-19.13,14-36.54,27-51.67,5.2-6,10.38-12.08,15.62-18.07a9.67,9.67,0,0,0,2.63-6.58c0-.46-.15-1,.32-1.3.09,0,.21,0,.27.09.5.43.37,1,.47,1.6.39,2.13.93,2.36,2.54.94a70.09,70.09,0,0,0,6.28-5.65,1.51,1.51,0,0,1,2.5,0,1.47,1.47,0,0,1-.16,2.3c-.62.6-1.28,1.18-1.94,1.75-14.27,12.39-26,26.91-36.11,42.82a93.63,93.63,0,0,0-11.87,26.44,157,157,0,0,1-14.54,36.69c-.3.54-.91,1.06-.49,1.82.64.35,1.11-.07,1.59-.35a114.53,114.53,0,0,0,14.08-9.29,125.78,125.78,0,0,0,24.36-26.11c6.48-9.08,12.92-18.2,19.42-27.28C262.32,236.06,276.71,225,295,219.38c6.49-2,12.83-4.44,19.2-6.78,14.65-5.38,23.18-16,26.6-31,1.61-7.07,1.7-14.24,1.67-21.43a81.76,81.76,0,0,1,8.37-36c4.5-9.42,12-14.18,22.27-14.76,2-.11,4-.34,6.09-.54a2.34,2.34,0,0,0-1.25-1.45,24.5,24.5,0,0,0-8.08-3.16c-4.43-.91-8.89-.64-13.35-.41-.57,0-1.53.37-1.63-.1-.39-2-1.83-1.63-3.14-1.71-.37,0-.8-.07-.95-.5-.23-.63.29-.86.69-1.09a25.86,25.86,0,0,1,4.4-1.48c1.18-.39,2.59-.53,3.39-2.1a53.43,53.43,0,0,0-11.56.6c-10.39,1.33-20.75,2.88-31.13,4.33a11.94,11.94,0,0,1-4.7,0,4.64,4.64,0,0,1,2.64-1.53,69.71,69.71,0,0,1,11.81-3.06,123.94,123.94,0,0,0,18.76-4c.7-.22,1.46-.31,1.84-1a3.3,3.3,0,0,0-2.37-1.17,61.8,61.8,0,0,0-25.4-1.06,143.08,143.08,0,0,1-26.39,2c-.89,0-1.93.27-2.55-.87a20.12,20.12,0,0,1,4.32-.89c5.11-.55,10.22-1.08,15.32-1.72a8.22,8.22,0,0,0,4.65-1.51,17.12,17.12,0,0,0-5.78-1.39c-8.13-1-16.28-.68-24.42-.25a60.8,60.8,0,0,1-9.35,0c3.59-1.59,7.73-1.25,11.06-3.51-29-1-55.11,7.67-78.74,24.24-16.13,11.31-35.87,33.76-37.76,43,1.61,0,2.62-1.22,3.9-1.79.42-.18.84-.59,1.3-.13a1.14,1.14,0,0,1,.07,1.35A9.54,9.54,0,0,1,171,152.5a22.74,22.74,0,0,0-9.53,12.1c-.17.25-.3.56,0,.77s.47-.05.62-.29a51.69,51.69,0,0,0,5.74-5.33,75.19,75.19,0,0,1,12.62-10.24c.53-.33,1-1,1.86-.6,0,.89-.74,1.31-1.22,1.84-2.57,2.78-5.2,5.5-7.72,8.32-5,5.58-9.86,11.22-13.57,17.76-.15.21-.4.46-.14.67s.47,0,.56-.3a7.35,7.35,0,0,0,2.67-2.18c4.23-4.14,8.41-8.34,12.65-12.47a44.26,44.26,0,0,1,13-8.75c.66-.29,1.32-.93,2.17-.29.19,1.38-.9,2-1.7,2.79-2.93,2.86-6.27,5.21-9.4,7.82-9.89,8.22-17.66,18-21.91,30.26a2.65,2.65,0,0,0-.16,2.27,16.92,16.92,0,0,0,2.86-3.59c2.08-3.27,4.15-6.56,6.25-9.82a45.16,45.16,0,0,1,7.27-8.69c.52-.5,1-1.24,1.88-.94.39.68,0,1.14-.33,1.61-2.32,3.58-4.65,7.16-7,10.75-2.94,4.57-5.94,9.11-8.05,14.15q-1.06,2.55-2,5.15c-.16.42-.2,1,.41,1.2s.66-.28.84-.61A167.66,167.66,0,0,1,173.89,185a54.92,54.92,0,0,1,11.26-11.32,8.92,8.92,0,0,0,1.89-1.79c1.63-2.12,3.36-4,6.19-4.5.52-.09,1-.64,1.44-.94a22.34,22.34,0,0,1,3.27-1.89c3.81-1.47,7.65-2.81,10.38-6.14.78-1,1.77-.56,2.55.16.95.86.65,1.71-.14,2.5a14.8,14.8,0,0,1-3.52,2.57c-8.92,4.79-16.28,11.53-23.27,18.72a3.76,3.76,0,0,0-1.27,3.91,4.35,4.35,0,0,1-1.16,4.29c-.71.79-1.36,1.65-2.06,2.45a74.53,74.53,0,0,0-15,27c0,.09-.09.18-.11.27-.13.64-.51,1.44.44,1.68.75.2.92-.56,1.06-1.09a16.9,16.9,0,0,1,2-4.53A98.13,98.13,0,0,1,176,204.68c7.68-9.37,16.79-17.21,26.28-24.66a2.73,2.73,0,0,1,.75-.29c-.49,2.54-1,3.38-3.05,5.43-3.19,3.13-6.35,6.27-9.22,9.71-9.14,11-15.85,23.43-22.13,36.16A10.55,10.55,0,0,0,168,233a2.8,2.8,0,0,0,.65,2.45c.48.61,1.06.9,1.61,0a8.31,8.31,0,0,0,.7-1.27c3.34-8.45,8.42-15.94,13-23.71.56-.94,1.1-1.85,2.35-1.92Zm203.81,75.11v-.12c3,0,6,.06,9,0a15.74,15.74,0,0,0,6.5-1.37c3.47-1.67,5-4.6,4.1-8.35-.38-1.7-.95-3.35-1.45-5a10.23,10.23,0,0,1,3-11.13c1-1,2.81-1.7,2.17-3.41-.53-1.43-2.31-1.13-3.6-1.37-2.38-.44-4.8-.74-7.16-1.25-2.08-.45-2.45-1.66-1.21-3.36a7.93,7.93,0,0,1,2.52-1.93c4.17-2.52,7.23-6.19,9.87-10.15a6,6,0,0,0-4.85-9.27,10.33,10.33,0,0,1-2-.16c-1.25-.34-1.72-1.66-1.53-3.68a1.76,1.76,0,0,1,1.82-1.81c3.83-.42,4.21-.61,7.25-2.92.46-.36,1-.64,1.45-1a9.29,9.29,0,0,0,2.28-2.23c1.92-2.65,1.64-4.78-1.83-5.51a19.82,19.82,0,0,1-10.16-5.93c-2.24-2.3-4.32-4.73-6.35-7.21A26.81,26.81,0,0,1,395,175a64.69,64.69,0,0,0,.42-12.2c-.41-8.15-1.25-16.26-2.39-24.33a30.76,30.76,0,0,0-5.72-13.86c-3.28-4.5-7.62-7.19-13.36-6.9-4.75.24-8.47,2.61-11.42,6.2a41.29,41.29,0,0,0-7.76,15.82A78.37,78.37,0,0,0,352.4,157c-.32,7.76-.36,15.53-1.17,23.26-.39,3.77-.8,7.56-2.47,11-2,4.18-4.15,8.33-6.39,12.41a29.16,29.16,0,0,1-7,8.52c-1,.83-2.83,1.33-2.65,2.82.22,1.84,2.28,1.84,3.65,2.38,6.4,2.51,12.84,5,19.26,7.44,1.27.49,2.55,1,3.26,2.27.6,1.11.35,1.62-.87,1.75a18.27,18.27,0,0,1-4-.46c-9.47-1.14-18.8-2.82-27.44-7.15a4,4,0,0,0-3.64-.05c-5.34,2.54-10.88,4.63-16.12,7.4a25,25,0,0,0-7.08,5.51,12.24,12.24,0,0,0-.68,16,24.43,24.43,0,0,0,9,7.2,15.1,15.1,0,0,0,8.49,1.39,14.63,14.63,0,0,0,6.66-2.72c1.77-1.21,2.2-.94,2.36,1.23a6.44,6.44,0,0,1-2.83,6c-1.41,1-2.94,1.88-4.43,2.79-2,1.19-2,1.22-.41,2.9A32.19,32.19,0,0,0,339.3,279.6C356.61,281,373.92,282.33,391.24,283.68Zm-92.05-18c-.43,1.53-.73,2.53-1,3.54a149.09,149.09,0,0,1-7.57,22.56c-10.51,24.17-27.23,42.15-52,52.11-.81.32-1.6.69-2.38,1.09-.41.2-1,.4-.8,1,.29.81.92.42,1.46.25.18-.06.37-.11.55-.18C247,342.42,256.56,339,266,335.1c13.81-5.68,23.43-15.58,28.58-29.66A95.92,95.92,0,0,0,298.65,290c1.07-5.81,2.26-11.62,2.06-17.58C300.64,270.32,300.68,268.19,299.19,265.68ZM263.07,252.3a23.89,23.89,0,0,0-6.6,7,171.92,171.92,0,0,1-13.22,17.3A118.2,118.2,0,0,0,232.48,291c-.27.43-.86.82-.4,1.49,1,.26,1.62-.5,2.31-1a95.87,95.87,0,0,0,20-17.6,41.73,41.73,0,0,0,7.4-12.42A18.39,18.39,0,0,0,263.07,252.3Zm9.35,330.55c11.52,8.61,43.3,13.82,58.69,9.8-1.11-1.14-2.57-1.37-3.93-1.72a48.15,48.15,0,0,0-12.09-1.38A72.06,72.06,0,0,1,296.45,587c-4-1.1-8.05-2.12-12.09-3.11-.8-.19-1.59-.72-2.52-.24-1.21.62-2.44.22-3.68-.07C276.42,583.15,274.72,582.31,272.42,582.85Zm81.11,5.24c1.37.26,2.12,1.88,3.73,1.43,6.27-1.74,12.4-3.77,17.45-8.12.44-.38,1.09-.7.89-1.71C368.08,582.33,361.19,586.16,353.53,588.09ZM310,530.55c-5.83-3.61-12.44-5.38-18.76-7.82C296.53,527.59,303.14,529.34,310,530.55Zm97.25,34.82c-1.26.21-1.84.44-2.12,1C404,568.47,402,569.67,400,571c-2.24,1.51-4.48,3-6.69,4.59a7.58,7.58,0,0,0-2.68,2.45C398.05,576.06,402.8,571.36,407.23,565.37Zm-263.3-217a5,5,0,0,0-3.09,3.26A5.43,5.43,0,0,0,143.93,348.36Zm153.79,207c-1.16-.88-2-.52-3,.2A2.43,2.43,0,0,0,297.72,555.41Zm-161.59-198a1.39,1.39,0,0,0,1.31-.88c.16-.37.16-.83-.24-1-.69-.21-1,.38-1.27.86A.71.71,0,0,0,136.13,357.43ZM290.41,522.19l-.18.13c.06,0,.11.14.16.14s.12-.08.18-.12Z"/><path class="cls-1" d="M182.37,560.6c6.69,3.52,7.35-3.93,14.43-1.34,4.53,1.65,8,7.64,12.68,8.94,3.3.92,13.29,10.51,15.83,12.36-2.76-.09-15.59-2.62-18.09-3.39-7-2.17-10.39-4.48-17.21-7.23-.75-.31-4.9-3.65-5.68-3.55a26.5,26.5,0,0,0-4.87-2.54q-95-41-144.57-131.8A285.13,285.13,0,0,1,4.17,342.76,291.4,291.4,0,0,1,.64,274.28c8.22-124,91.73-224,201.74-260A278.57,278.57,0,0,1,266.94,1.09c79.05-6.3,150,14.69,211.68,64.64C531.2,108.3,564.77,163.15,580,229.08a277.53,277.53,0,0,1,6.73,77.48q-6.23,116.93-90.08,198.66a280.35,280.35,0,0,1-52.42,40,15.21,15.21,0,0,0-3.75,3.11c-2.67,2.34-1.48,1.68-2,2-4.35,2.32-8.29,6.71-12.61,9.08-1.86,1-7.7-.39-10.29.51,1.57-2.8,6.68-8.81,9.19-10,6.1-2.93,10.53-7.58,16.34-11,1.41-.84,4.16,1.6,5.53.7.31-.15,2.62-1.52,3.5-2.08a283.61,283.61,0,0,0,56.09-47c50.32-55,75.79-119.87,77.34-194.26a293.2,293.2,0,0,0-10.19-79.12Q545.91,119,463.87,58.75C417,24.45,364.23,6.45,306.28,3.67A288.92,288.92,0,0,0,182.86,25.3q-76.47,31.9-125,99.14c-32.45,45.08-50,95.59-53.74,151a281.54,281.54,0,0,0,.32,40.45,290.39,290.39,0,0,0,165,239.63C170.38,555.92,182.08,560.48,182.37,560.6Z"/><path class="cls-1" d="M159.34,541.62c-.76,0-2.94-1.74-3.53-2.21a47.75,47.75,0,0,0-4.73-3.06c-66.37-40.17-110-97.56-130.23-172.52a264,264,0,0,1-8.23-50.46A282.07,282.07,0,0,1,229,18.88a268.39,268.39,0,0,1,45.13-6.76,282,282,0,0,1,49.14.85c56.62,6.2,107.06,27.27,150.8,63.79q64.73,54.08,89.44,134.91a283.09,283.09,0,0,1,12,84.09c-1,62.24-20,118.33-57.48,168.05a277.83,277.83,0,0,1-61.54,59.47,16.74,16.74,0,0,0-2,1.63c-.36.34-3.36,4.05-3.84,4.18-1,.27-.25.9-1.09,1.46-5.1,3.46-7.73,5.86-13,9a10.24,10.24,0,0,1-3.7.8H431c1.12-2.81,6.19-12.07,9-13.7,6-3.46,7.95-5.18,13.59-9.18.45-.31,2.07-.33,2.39-.72s1.65.86,2.28.71a27,27,0,0,0,2.72-1.82,255.25,255.25,0,0,0,20.61-17.1c42.95-39.71,71.06-88,83.85-145.14a276.91,276.91,0,0,0,6.2-74.33C567,183.92,513.45,98.58,432.49,52a275,275,0,0,0-94.36-33.46,271.15,271.15,0,0,0-67.92-2.57c-70.47,6.48-130.31,35.34-179.07,86.6C54.87,140.67,31.74,185.86,21,237.38a269.62,269.62,0,0,0-5.23,70.95q5.61,94.74,67.42,166.92A271,271,0,0,0,146,529.1c.77.48,1.41,1.4,2.54,1.08l0,0c0,.66.5.58.92.64,2.47,2.32,6.59-1.62,9.51,0,11.39-2.91,18.06,10.44,28.16,14.43,1.35.54,3.77,4.92,5.13,5.4,3.39,1.21,10.14,6.37,11.94,9.92-.55.81-8.84,2-9.17-1.1-10.37-1.1-10-2.22-15.24-4.55-7.07-3.17-13.42-4.79-20.55-12.2C159.07,542.63,159.44,541.62,159.34,541.62Z"/><path class="cls-1" d="M284.8,521.46c-2.3-.72-4.16-2.38-6.49-3a1.86,1.86,0,0,1-.92-.67c-1-1.32-1.8-2.83-3.68-3.27,4.43.93,8.25,2.78,11.12,6.28Z"/><path class="cls-1" d="M249.84,569.94c3,1.43,6.23,2.55,8.87,4.72,0,.34-.09.67-.14,1l-9.42-5.18Z"/><path class="cls-1" d="M386.21,569.81c2.2-1.36,4.78-2.1,6.72-3.93.33-.32,1-.54,1.28,0,.41.71-.31.9-.8,1.2a64.63,64.63,0,0,1-6.73,3.32Z"/><path class="cls-1" d="M186.31,208.55a14.27,14.27,0,0,1,3.17-4.72c.33-.34.74-.7,1.2-.2s.09.71-.16,1c-1.09,1.26-1.16,3.33-3.09,3.94Z"/><path class="cls-1" d="M281.85,523.86c-2-.81-4.23-1.27-5.12-4.18a28.71,28.71,0,0,1,5.17,3.47C281.88,523.39,281.87,523.62,281.85,523.86Z"/><path class="cls-1" d="M408.3,543.55l3.07-3.21a4.62,4.62,0,0,1-2.49,3.74Z"/><path class="cls-1" d="M225.35,448.07c-1.59-.37-2.78-1.44-4.09-2.31l.62-.52c1.17.92,3,1.12,3.43,2.88Z"/><path class="cls-1" d="M258.69,296.05a10.55,10.55,0,0,1-3.06,2.62,7.48,7.48,0,0,1,2.31-3.38Z"/><path class="cls-1" d="M432.8,537.75c-.05.08-.1.24-.13.23-.19,0-.14-.12.13-.22Z"/><path class="cls-1" d="M316.15,319.57a53.38,53.38,0,0,1-.12,8.55c-.54,7.94-1.14,15.87-1.69,23.8a84.67,84.67,0,0,0,1.77,25.15,13.18,13.18,0,0,1,.12,1.62c-2.41-.21-3.69-1.73-4.86-3.34a21.22,21.22,0,0,1-2.44-5.58,12.27,12.27,0,0,0-1.51-3.78c-1.2.07-1.48,1.13-2,1.87-5.8,8.27-10.74,17.07-15.88,25.74-.43.74-.89,1.47-1.51,2.5a3.13,3.13,0,0,1-.08-2.32,64.36,64.36,0,0,1,6.66-17.61,256.28,256.28,0,0,0,12.54-25.9,109.58,109.58,0,0,0,7.44-28C314.74,321.11,314.75,321.11,316.15,319.57Z"/><path class="cls-1" d="M397,375c-16.87,1.43-33.64,4.57-50.91,1.79,2-.95,16.05-2.41,25.46-2.81C380,373.65,388.55,373,397,375Z"/><path class="cls-1" d="M233.92,412c-2.87,0-4.8-1.79-4.76-4.35a4.59,4.59,0,0,1,5-4.25,4.25,4.25,0,0,1,4.15,4.62C238.2,410.52,236.56,412,233.92,412Z"/><path class="cls-1" d="M326.05,406.82a3.59,3.59,0,0,1-3.66-3.69,3.88,3.88,0,0,1,4-3.72,3.94,3.94,0,0,1,3.71,3.78A3.82,3.82,0,0,1,326.05,406.82Z"/><path class="cls-1" d="M357.75,467.76a3.39,3.39,0,0,1,3.32,3.62,4.08,4.08,0,0,1-4.39,4,3.12,3.12,0,0,1-3.11-3.42A4.06,4.06,0,0,1,357.75,467.76Z"/><path class="cls-1" d="M405.92,559.91a2.7,2.7,0,0,1-2.21-1.34c-.4-.81.51-1.14,1-1.54,1.56-1.3,3.17-2.55,4.77-3.82.4-.31.88-.54,1.33-.23.64.43.34,1,.06,1.53a19.5,19.5,0,0,1-3.49,4.63A2.22,2.22,0,0,1,405.92,559.91Z"/><path class="cls-1" d="M212.22,286.09a1,1,0,0,1,0-1.12c4.71-9.88,8.69-20.1,13.81-29.8,7.2-13.62,15.54-26.41,26.54-37.31A113.52,113.52,0,0,1,281.45,197c6.31-3.2,12.72-6.19,19-9.39a229.57,229.57,0,0,0,22.59-13.2A6.53,6.53,0,0,1,326,173c.44,1.37-.56,2-1.22,2.74a60.61,60.61,0,0,1-21,15.3,160.55,160.55,0,0,0-24.23,13.21c-21.33,14.2-37.8,32.88-50.68,54.89-3.77,6.45-6.91,13.25-11,19.52-1.21,1.88-2.4,3.76-3.63,5.63C213.76,285.07,213.36,286,212.22,286.09Z"/><path class="cls-1" d="M274.25,162.72c-.26,1.31-1.2,1.71-1.94,2.28a68.54,68.54,0,0,1-12.14,7.43,201.34,201.34,0,0,0-41.4,26.36c-19.29,15.94-31.18,36.32-35.9,60.89-1.82,9.42-3.52,18.87-5.33,28.3-.43,2.26-.84,4.61-3.09,6-.94-.66-.82-1.48-.53-2.36,1.7-5.11,1.9-10.47,2.57-15.76,1-7.6,1.83-15.22,3.12-22.77,1.66-9.71,6-18.39,11.29-26.6,14.73-22.72,34.3-40.18,57.88-53.29A196.84,196.84,0,0,1,269,163.43,8,8,0,0,1,274.25,162.72Z"/><path class="cls-1" d="M252.67,237.23a11,11,0,0,1,2.31-4.6,52,52,0,0,1,9.7-9.57c12.57-9.61,26.55-16.65,41.1-22.64,1.26-.52,2.52-1,3.78-1.51.38-.15.8-.14.9.36a.93.93,0,0,1-.25.76,16,16,0,0,1-1.69,1.12,146.6,146.6,0,0,1-13.85,7.35,144.41,144.41,0,0,0-39.61,27.14A4,4,0,0,1,252.67,237.23Z"/><path class="cls-1" d="M233.6,176.07a6.63,6.63,0,0,1-2.23,2.12q-9.88,7.67-19.81,15.3a16.89,16.89,0,0,1-4.11,2.7,5.85,5.85,0,0,0-2.42,2.05,64.38,64.38,0,0,1-9.42,9.47c-1,.88-1.63,2.16-3.13,3a3.83,3.83,0,0,1,1.43-3.34,27.11,27.11,0,0,0,2.81-3.7,19.33,19.33,0,0,1,7.26-6.56,7.86,7.86,0,0,0,2.91-2.65,44.86,44.86,0,0,1,7.84-8.16,58.93,58.93,0,0,1,16.14-9.7c.62-.25,1.27-.45,1.92-.64C233,175.88,233.15,176,233.6,176.07Z"/><path class="cls-1" d="M295.87,175.35a6.18,6.18,0,0,1,3.57-2.79c11.6-4.54,20.29-12.64,27.67-22.37.38-.5.58-1.24,1.35-1.34.66.41.36.81.05,1.19-1.05,1.31-1.45,3-2.25,4.38-6.38,11.38-16.37,17.79-28.74,20.94a2.18,2.18,0,0,1-1.7-.05Z"/><path class="cls-1" d="M310.53,155.82c7.35-7.44,10.62-17.24,16.15-25.63a32.49,32.49,0,0,1,5-6.19,17,17,0,0,1-1.38,4.45,89.36,89.36,0,0,1-7.08,15.28,37.44,37.44,0,0,1-10.76,11.68,12.71,12.71,0,0,1-1.25.72S311.07,156.06,310.53,155.82Z"/><path class="cls-1" d="M188.17,135.83c-.45-.9.16-1.46.68-2a17.45,17.45,0,0,1,10-5.37c-.89,3.53-5,6.28-10.73,7.34Z"/><path class="cls-1" d="M216.19,117.82c0,1.6-.64,2.6-1.9,2.87-3.73.78-6.58,3.17-9.7,5a13.64,13.64,0,0,1-4.05,2,24.6,24.6,0,0,1,7.72-5.82,11.09,11.09,0,0,0,3.31-2.25A5.68,5.68,0,0,1,216.19,117.82Z"/><path class="cls-1" d="M188.12,135.78c-.13.86-.17,1.82-1.12,2.2-3.81,1.53-6.17,4.87-9.24,7.31-.71.56-1.14,1.6-2.61,1.39a25.39,25.39,0,0,1,5.55-5.76,20.33,20.33,0,0,0,3.94-3.81,3.07,3.07,0,0,1,3.53-1.28Z"/><path class="cls-1" d="M297.89,132.64a5.67,5.67,0,0,1,2-2.74c1.65-1.49,3.66-2.53,5.09-4.28a.83.83,0,0,1,1-.25c.48.29.43.78.21,1.27C305.06,129.24,300.94,132.23,297.89,132.64Z"/><path class="cls-1" d="M295.1,140.17l5.71-2c1.61-.58,3.37-.84,4.67-2.14a.77.77,0,0,1,1.24.05c.22.31,0,.73-.32,1a12.81,12.81,0,0,1-6.91,3.35A7.58,7.58,0,0,1,295.1,140.17Z"/><path class="cls-1" d="M344.15,103.81a9.55,9.55,0,0,1,4.09-2.21.84.84,0,0,1,1.11.61c.11.43-.19.72-.58.84-1.43.44-2.87.86-4.3,1.28Z"/><path class="cls-1" d="M283.48,93.43c-.37-.09-.91-.14-.81-.56a1,1,0,0,1,1.31-.72c.41,0,.73.26.61.7S283.92,93.37,283.48,93.43Z"/><path class="cls-1" d="M250.19,239c.59,1.32.08,2-1,2.29a.52.52,0,0,1-.45-.22C248.49,239.81,249.48,239.55,250.19,239Z"/><path class="cls-1" d="M179.66,168.83c.15-.37.39-.67.85-.54a.51.51,0,0,1,.21.45c-.13.25-.32.54-.55.61S179.64,169.21,179.66,168.83Z"/><path class="cls-1" d="M177.48,171.77c-.08-.12-.24-.27-.21-.35.09-.26.32-.41.57-.26a.43.43,0,0,1,.1.43C177.85,171.7,177.64,171.71,177.48,171.77Z"/><path class="cls-1" d="M309.57,122.25c-.12-.12-.33-.23-.33-.32,0-.39.25-.66.68-.55.09,0,.2.28.16.39S309.88,122.27,309.57,122.25Z"/><path class="cls-1" d="M309.89,156.75c.05-.27.19-.48.49-.45a.56.56,0,0,1,.07.42c-.19.29-.42.15-.63,0Z"/><path class="cls-1" d="M295.82,175.31l.05,0Z"/><path class="cls-1" d="M309.82,156.71c.19.13.22.28.06.37s-.22,0-.34-.06l.35-.27Z"/><path class="cls-1" d="M234.42,553.66c-.66-.41-1-.58-1.3-.81-12.75-10.64-25-21.82-35.34-34.89-10.11-12.75-17.83-26.74-22.16-42.5-.93-3.36-.68-3.91,2.27-5.26a10.66,10.66,0,0,1,.74,3.6,48.42,48.42,0,0,0,4.67,14c11.78,23.15,27.46,43.11,48.14,59C233.56,548.43,235.45,550.2,234.42,553.66Z"/><path class="cls-1" d="M249.84,569.94l-.69.54a16.57,16.57,0,0,0-4.86-.71,7.6,7.6,0,0,1-4.37-1.38c-14.15-8.78-27.21-18.88-38-31.72A61.66,61.66,0,0,1,193.87,525l-.06,0c1.35-.29,1.75,1,2.41,1.63a364.21,364.21,0,0,0,32.55,28.9A155.66,155.66,0,0,0,249.84,569.94Z"/><path class="cls-1" d="M283.44,553.28a13.6,13.6,0,0,1-6.41-.66,57.36,57.36,0,0,1-14.42-6.81c-8.69-5.57-16.42-12.38-24.32-19-.29-.25-.59-.51-.49-1,.12-.13.23-.36.36-.38,3.68-.51,3.89-.9,1.92-4-.78-1.22-1.69-2.37-2.53-3.55a5.27,5.27,0,0,1-1.28-3.7c1.07-.15,1.54.54,2.08,1a55.09,55.09,0,0,1,10.48,12.42c4.43,7.56,11.15,12.55,18.48,16.82a124,124,0,0,0,14.35,7.07C282.34,551.91,283.18,552,283.44,553.28Z"/><path class="cls-1" d="M157.56,490.82c.92.3,1.23,1.19,1.72,1.88,3.24,4.61,6.51,9.18,9.63,13.86,1.62,2.43,4.15,4.07,5.43,6.78.46,1,1.39,1.75.09,2.69-1,.74-2.12.57-2.91-.85-2.29-4.1-5.54-7.48-8.17-11.31a42.34,42.34,0,0,1-5.71-11.72C157.51,491.72,157.22,491.3,157.56,490.82Z"/><path class="cls-1" d="M182.3,522c1.06,0,1.37,1,1.89,1.58q9,10.81,18,21.68v0c-.86.43-1.51-.15-2.12-.57a49.22,49.22,0,0,1-17.75-21.77,2.41,2.41,0,0,1,0-.85Z"/><path class="cls-1" d="M187,513.63a4.48,4.48,0,0,1-4.74-2c-4-6.42-7.93-12.87-9.67-20.36a3.25,3.25,0,0,1,0-2.12C177.07,497.63,181.44,505.85,187,513.63Z"/><path class="cls-1" d="M152.24,466.2a17.76,17.76,0,0,1,4.87,10.46c.18,1.52-.89,2.44-2,3.59C152.61,475.83,150.62,471.58,152.24,466.2Z"/><path class="cls-1" d="M162.7,485.71c2.8,4.52,5.35,8.7,6.34,13.62a6.83,6.83,0,0,0,1.13,2.95,1.56,1.56,0,0,1,.42,1.59,1,1,0,0,1-.81.72.88.88,0,0,1-.62-.5c-1.85-5.08-5.23-9.46-6.72-14.7C162,487.85,161.94,487.86,162.7,485.71Z"/><path class="cls-1" d="M170.74,443.91c0,.4.1.93-.51,1.12s-.91-.16-1.26-.52a5.77,5.77,0,0,1-1.58-3.66,4,4,0,0,0-1.28-3.11c-.59-.5-1.21-1.15-.42-1.94a2.28,2.28,0,0,1,3.12.18,4.24,4.24,0,0,1,.54,1.34c.44,1.88.84,3.77,1.25,5.66C170.66,443.26,170.69,443.55,170.74,443.91Z"/><path class="cls-1" d="M191.25,470a61.34,61.34,0,0,1,5.55,11C192.63,478.53,191,474.73,191.25,470Z"/><path class="cls-1" d="M223,496.72c-3.86-2-5.57-5.49-6.79-9.34C219.94,489.41,221.81,492.79,223,496.72Z"/><path class="cls-1" d="M263.69,508.23c4.15.48,6,4,9.35,5.29-1.75-.47-3.52-.12-5.17-.44C265.57,512.62,264.56,510.63,263.69,508.23Z"/><path class="cls-1" d="M207.55,463c-.1.28-.12.55-.24.6s-.6.24-.78.14a7,7,0,0,1-2.29-2.15c-1.12-1.68-2.18-3.4-3.25-5.1-.28-.44-.41-1,0-1.31s.83.14,1,.58a22.33,22.33,0,0,0,4.86,6.4A5.11,5.11,0,0,1,207.55,463Z"/><path class="cls-1" d="M183.84,452.68a39.28,39.28,0,0,1,3.23,7.55C184.2,458.84,183.31,456.77,183.84,452.68Z"/><path class="cls-1" d="M211.93,467.88c-.19.42-.57.59-.9.3a27.47,27.47,0,0,1-2.22-2.23.52.52,0,0,1,.3-.89C210,464.86,212.1,467,211.93,467.88Z"/><path class="cls-1" d="M207.37,417.38c1.29,1.08,1.82,1.95,1.4,3.35C207.22,420.19,207,419.15,207.37,417.38Z"/><path class="cls-1" d="M174,434.82c-.08.39-.3.84-.66.8-.59-.06-.58-.65-.58-1.11s.14-.88.57-.79A1,1,0,0,1,174,434.82Z"/><path class="cls-1" d="M210.32,423.49c.2.18.42.35.61.54s.56.62.21.88-.63-.2-.82-.46a.79.79,0,0,1,0-1Z"/><path class="cls-1" d="M193.87,525c-.1-.15-.2-.29-.28-.44s.12-.15.13-.15a.37.37,0,0,1,.09.63Z"/><path class="cls-1" d="M182.28,522c-.34,0-.44-.25-.38-.55,0-.06.19-.15.19-.15.17.2.39.38.21.68Z"/><path class="cls-1" d="M225.31,448.12l.55.05c-.26.41-.33-.09-.51-.1Z"/><path class="cls-1" d="M210.35,423.45c-.08,0-.23.09-.25.07s-.06-.19.21,0Z"/><path class="cls-1" d="M218.61,455.23c.06,0,.14,0,.18,0s.11.22-.1.3c0,0-.13-.09-.16-.16S218.58,455.27,218.61,455.23Z"/><polygon class="cls-1" points="202.15 545.27 202.16 545.36 202.16 545.22 202.15 545.27"/><path class="cls-1" d="M389.56,179c-.46,2.71-.78,5-1.24,7.25a16.52,16.52,0,0,0,1.15,9.67c.19.45.44.87.61,1.32.75,1.93.29,2.62-1.7,2.36-2.56-.33-4.92-1-6.47-3.39a7.79,7.79,0,0,0-6.12-3.45c-1.25-.12-2.5-.33-3.75-.47s-1.87-.68-1.84-1.83c0-1,.9-1.1,1.69-1.24.57-.09,1.13-.3,1.71-.35a6.48,6.48,0,0,0,6.2-5.21,4,4,0,0,1,3.37-3.19C385.16,180.11,387.13,179.61,389.56,179Z"/><path class="cls-1" d="M364.76,178a8.47,8.47,0,0,1,1.88-4.7A26.34,26.34,0,0,1,381,163.4a9.87,9.87,0,0,1,8.13.83A3.37,3.37,0,0,1,391,167c.21,2.72-.93,3.63-3.37,2.47-4.53-2.15-8.81-1.64-13,.89a70.83,70.83,0,0,0-6.9,5.29C366.86,176.27,366,176.94,364.76,178Z"/><path class="cls-1" d="M316.89,250.3a3.24,3.24,0,0,1-3.35,3.5c-2.34.08-3.73-1.21-3.67-3.42q.08-3,3.71-3C315.88,247.3,316.89,248.2,316.89,250.3Z"/><path class="cls-1" d="M196.42,335.76c-1.51.33-3,.63-4.53,1a11.56,11.56,0,0,0-5.62,2.91,21.29,21.29,0,0,1-6,4l-11.68,6.15c-.69-1.64-.15-2.7,1.08-3.27,4.09-1.91,7.38-5,11-7.49a75.49,75.49,0,0,1,18.65-9.36,120.79,120.79,0,0,0,19.28-8.05c.52-.29,1.1-.95,1.77-.19-2.29,3-14.23,10-23.05,13.51A1.38,1.38,0,0,0,196.42,335.76Z"/><path class="cls-1" d="M196.42,335.76a1.38,1.38,0,0,1,1-.75,5.21,5.21,0,0,0,6-.43,7.65,7.65,0,0,1,6.31-1.51c-2.42,2.78-6,1.81-8.47,3.47s-5.8,1.33-8.71,3.08c.13-1.24.71-1.56,1.48-1.69A2.62,2.62,0,0,0,196.42,335.76Z"/><path class="cls-1" d="M252.68,301.48c-.13-.05-.39-.07-.44-.17-.14-.32.08-.52.37-.6s.61-.1.65.23S253,301.4,252.68,301.48Z"/></g></g></svg>