<svg width="257" height="50" viewBox="0 0 257 50" fill="none" xmlns="http://www.w3.org/2000/svg">
<g clip-path="url(#clip0_97_41)">
<path d="M57.7861 16.8081C56.5623 23.4118 55.305 29.9444 54.1711 36.4979C53.9138 37.9775 53.7527 39.5302 54.1711 41.0474C54.9598 43.8937 58.3133 45.0535 61.2568 43.5802C63.7673 42.3263 64.8488 40.0777 65.4702 37.5888C66.1751 34.8945 66.7048 32.1574 67.0559 29.3948C67.2338 27.8546 67.5852 26.0762 65.8635 24.8433C65.194 24.3647 64.4451 24.5486 63.807 24.1599C63.4639 23.9509 62.6459 24.2874 62.874 23.487C63.0371 22.9102 63.0351 22.0952 64.0769 22.0806C66.3216 22.0492 68.4701 21.4934 70.6124 20.8121C73.2923 19.9616 75.7253 18.6659 78.104 17.2239C78.3132 17.0923 78.5119 16.8373 78.7316 16.806C79.3424 16.7433 80.0642 16.5698 80.5537 16.806C81.2357 17.1487 80.5976 17.8362 80.514 18.3232C79.5349 23.9447 78.447 29.5474 77.491 35.173C77.0307 37.8751 76.2588 40.5417 76.3006 43.3232C76.3111 44.1152 76.3006 44.8717 77.196 45.3293C78.0328 45.7598 78.5412 45.2269 79.2148 44.9699C79.8236 44.7379 80.2943 43.3775 81.1186 44.4579C81.765 45.3043 80.7106 45.8037 80.3069 46.2593C77.6751 49.2435 74.4345 50.5329 70.3927 49.7764C68.6103 49.442 67.0455 48.9405 65.7777 47.5884C65.1501 46.928 65.0162 46.0963 64.7861 45.3649C64.4786 44.3806 64.2882 44.7003 63.8384 45.1559C62.2093 46.8744 60.1912 48.1772 57.9535 48.9551C53.9619 50.3072 50.0038 50.4806 46.1691 48.4159C44.0603 47.2812 43.0541 45.4317 42.5415 43.1225C41.7382 39.4905 43.008 36.1176 43.508 32.636C43.7695 30.8221 44.2821 29.0249 44.1482 27.1608C44.0394 25.629 42.9306 24.6218 40.7905 24.1265C40.3616 24.0262 39.6357 24.2205 39.8658 23.441C40.0353 22.8684 40.0206 22.1098 41.0666 22.0555C46.1084 21.7943 50.6732 20.0953 54.8071 17.2302C55.736 16.6096 56.6941 16.7391 57.7861 16.8081Z" fill="#3C1C72"/>
<path d="M111.587 49.2352C104.761 49.2352 97.9336 49.231 91.1039 49.2226C90.6311 49.2226 89.9323 49.5737 89.8486 48.5623C89.7817 47.6616 90.1436 47.3565 90.9553 47.2102C94.2398 46.6188 95.631 44.8926 96.2 41.4716C96.4867 39.7601 96.4636 38.0778 96.4678 36.383C96.4999 27.8024 96.4999 19.2218 96.4678 10.6411C96.4678 8.79796 96.2879 6.97985 95.4574 5.27459C94.4741 3.25378 92.8779 2.22352 90.6457 2.23815C89.9574 2.23815 89.7817 1.94976 89.8717 1.37507C89.9532 0.854714 89.4993 0.0250727 90.5892 0.0355216H91.1164C98.6477 0.0355216 106.179 0.0355216 113.71 0.0355216C114.24 0.0355216 114.966 -0.292574 115.007 0.794111C115.035 1.66973 114.798 2.00409 113.899 2.11694C110.384 2.55161 108.928 4.4763 108.562 7.81785C108.423 9.26242 108.362 10.7135 108.38 12.1646C108.367 23.1234 108.39 34.0801 108.348 45.0368C108.348 46.1799 108.614 46.5498 109.813 46.5226C113.204 46.4411 116.597 46.4934 119.989 46.5038C124.302 46.5185 127.064 44.0797 129.152 40.6524C130.253 38.8768 131.098 36.9547 131.662 34.9432C131.974 33.8001 132.984 34.1741 133.754 34.1909C134.706 34.2118 134.212 35.01 134.191 35.3778C133.955 39.6201 133.656 43.8582 133.369 48.0962C133.315 48.8987 132.997 49.2561 132.074 49.2498C125.244 49.2143 118.409 49.2352 111.587 49.2352Z" fill="#3C1C72"/>
<path d="M14.2363 49.8182C11.546 49.929 8.35145 49.1516 5.51257 47.2164C2.58373 45.2228 0.769938 42.4476 0.240655 38.9347C-0.596156 33.4302 0.726006 28.5464 4.2971 24.1725C7.74058 19.9532 12.2489 17.8801 17.4413 17.0421C21.207 16.4382 24.9559 16.48 28.5291 18.0202C34.4788 20.5843 35.1692 25.7523 34.2675 30.632C34.2527 30.8052 34.1725 30.9664 34.0431 31.0828C33.9137 31.1992 33.7449 31.2622 33.5709 31.2589C30.3868 31.564 27.2759 32.331 24.1212 32.8032C21.2886 33.2212 18.4455 33.6015 15.6233 34.0905C14.6526 34.2598 13.684 34.6736 12.728 34.636C11.5502 34.5921 11.751 35.2629 11.8556 35.8773C12.3933 39.0517 14.8681 41.4779 18.1317 42.1007C23.1526 43.062 27.6462 41.8917 31.6587 38.7779C32.1295 38.4122 32.5416 38.1405 33.1357 38.6922C33.7299 39.2439 33.3449 39.5699 33.0416 40.013C30.1253 44.3033 26.276 47.3899 21.3388 49.0513C19.276 49.7367 17.1296 49.8851 14.2363 49.8182ZM24.4873 24.814C24.4873 24.4191 24.5124 24.022 24.4873 23.627C24.2781 20.6428 22.5291 18.9397 19.9015 19.1904C18.5765 19.2884 17.3234 19.8304 16.3451 20.7285C13.2656 23.5873 12.387 27.3447 11.9644 31.3007C11.8891 32.0133 12.3535 31.8587 12.7154 31.8001C16.1861 31.2359 19.6547 30.6487 23.1254 30.0886C23.3435 30.0771 23.5497 29.9853 23.7042 29.831C23.8587 29.6766 23.9506 29.4707 23.9622 29.2527C24.2028 27.7815 24.4915 26.3145 24.4956 24.814H24.4873Z" fill="#3C1C72"/>
<path d="M169.915 49.2351C167.494 49.2351 165.072 49.2456 162.649 49.2351C162.285 49.2351 161.739 49.4984 161.697 48.7189C161.659 47.9938 162.084 48.0272 162.593 47.929C164.862 47.4818 166.042 46.2446 166.099 43.6366C166.247 36.778 166.268 29.913 166.084 23.0586C166.017 20.5759 165.151 19.1444 162.39 18.8623C161.791 18.8017 161.72 18.4444 161.706 17.9491C161.687 17.3451 162.08 17.3619 162.492 17.3639C168.597 17.4036 174.714 17.1424 180.795 17.8446C183.229 18.1035 185.564 18.9428 187.605 20.2917C191.548 22.9165 191.91 29.6581 188.086 32.7238C187.475 33.2128 186.871 33.8836 186.163 34.0529C184.726 34.3956 185.155 34.9034 185.699 35.7498C187.536 38.6128 189.255 41.5468 191.101 44.4056C192.314 46.2864 193.845 47.8224 196.293 47.9332C196.877 47.9583 196.866 48.3198 196.879 48.7419C196.893 49.3041 196.509 49.2351 196.168 49.233C192.954 49.233 189.739 49.2832 186.53 49.1745C185.182 49.1285 184.186 48.2676 183.433 47.1224C182.289 45.3795 181.53 43.4423 180.576 41.6074C179.72 39.9628 178.607 38.4519 177.996 36.6797C177.735 35.9191 177.103 35.9985 176.473 36.0068C173.875 36.0403 173.827 36.0319 173.89 38.5961C173.944 40.736 173.601 42.8906 174.122 45.0159C174.567 46.8319 175.454 47.6657 177.346 47.9123C177.875 47.9813 178.124 48.1066 178.12 48.6939C178.12 49.3542 177.687 49.2309 177.312 49.233C174.848 49.2372 172.382 49.2379 169.915 49.2351ZM173.89 26.6655C173.89 28.9058 173.906 31.1439 173.877 33.3842C173.877 33.9944 174.03 34.1908 174.674 34.2201C179.818 34.4562 182.894 31.3111 182.542 26.164C182.333 23.2383 181.366 20.8518 178.373 19.7693C177.203 19.3513 175.961 19.3367 174.743 19.1883C173.984 19.0964 173.869 19.4286 173.877 20.0786C173.9 22.2686 173.881 24.465 173.881 26.6593L173.89 26.6655Z" fill="#3C1C72"/>
<path d="M239.364 49.6155C234.333 49.7325 230.008 48.1317 226.552 44.4036C224.756 42.4511 223.508 40.059 222.935 37.4697C222.167 34.1261 222.224 30.6696 223.448 27.4179C225.517 21.9259 229.531 18.5447 235.303 17.4016C240.613 16.3567 245.604 17.1926 249.987 20.5028C253.353 23.044 255.155 26.5443 255.845 30.6842C256.484 34.2889 255.88 38.0035 254.132 41.2208C252.019 45.1643 248.719 47.7221 244.397 48.9885C242.732 49.4755 241.046 49.5152 239.364 49.6155ZM247.941 33.4573C247.83 32.1011 247.784 30.7406 247.598 29.3885C247.199 26.5381 246.519 23.7754 244.669 21.4474C241.782 17.8279 236.899 17.8049 234 21.4139C233.094 22.5508 232.405 23.8442 231.966 25.2299C230.692 29.1524 230.502 33.171 231.015 37.2189C231.351 39.852 232.006 42.3911 233.525 44.6355C236.517 49.0366 242.05 49.0596 245.075 44.6794C245.819 43.5892 246.391 42.3909 246.77 41.1268C247.546 38.6316 247.86 36.0675 247.952 33.4573H247.941Z" fill="#3C1C72"/>
<path d="M209.83 49.2351C207.364 49.2351 204.897 49.2351 202.431 49.2351C202.065 49.2351 201.594 49.3731 201.626 48.7043C201.64 48.253 201.697 47.9855 202.253 47.9416C204.826 47.743 206.019 45.8079 206.065 43.227C206.134 39.269 206.094 35.3089 206.094 31.3487C206.094 28.7093 206.188 26.0637 206.054 23.4327C205.92 20.8016 205.159 19.7149 203.222 18.9689C202.992 18.8492 202.733 18.7971 202.475 18.8184C201.793 18.9376 201.653 18.5468 201.628 17.9825C201.594 17.2699 202.079 17.3556 202.513 17.3556H210.307C212.552 17.3556 214.799 17.3556 217.046 17.3556C217.613 17.3556 218.067 17.3263 218.05 18.1497C218.033 18.8728 217.73 18.8331 217.155 18.8414C215.586 18.8665 214.349 20.0263 214.052 21.7002C213.898 22.5654 213.819 23.4421 213.816 24.3208C213.795 30.3477 213.803 36.3747 213.816 42.4016C213.816 43.4987 213.864 44.5896 214.234 45.6386C214.726 47.0054 215.699 47.7848 217.14 47.9186C217.667 47.9667 218.069 47.9855 218.042 48.7043C218.012 49.4838 217.468 49.2289 217.1 49.231C214.673 49.2456 212.251 49.2351 209.83 49.2351Z" fill="#3C1C72"/>
<path d="M148.103 49.2352C145.725 49.2352 143.346 49.2456 140.969 49.2352C140.603 49.2352 140.059 49.4964 140.02 48.7169C139.984 47.9896 140.405 48.0085 140.917 47.9311C143.089 47.603 144.398 46.1193 144.474 43.4005C144.582 39.7517 144.511 36.0988 144.511 32.448C144.511 29.5014 144.532 26.5548 144.497 23.6082C144.461 20.6616 143.49 19.5081 140.622 18.8623C140.124 18.7516 140.043 18.4444 140.02 17.9992C139.99 17.4287 140.304 17.3598 140.76 17.3723C145.735 17.3723 150.711 17.3723 155.687 17.3723C156.141 17.3723 156.457 17.4371 156.427 17.9992C156.402 18.5008 156.281 18.7829 155.697 18.8707C153.555 19.1842 152.697 20.0619 152.405 22.2018C152.303 22.894 152.247 23.5921 152.237 24.2916C152.222 30.3185 152.222 36.3447 152.237 42.3702C152.212 43.4679 152.361 44.5626 152.679 45.6136C153.139 47.0304 154.13 47.7389 155.547 47.8998C156.076 47.9604 156.476 47.9708 156.448 48.6897C156.417 49.4671 155.875 49.2143 155.507 49.2163C153.034 49.2456 150.568 49.2352 148.103 49.2352Z" fill="#3C1C72"/>
<path d="M149.086 8.82512C150.133 8.79377 150.714 9.35592 151.112 10.1208C151.49 10.8459 151.3 11.5836 150.81 12.1729C149.392 13.8949 147.254 14.3818 145.338 15.224C144.974 15.3849 144.626 14.7475 144.873 14.2314C145.576 12.7685 146.285 11.3057 147.095 9.90554C147.281 9.5476 147.57 9.25348 147.925 9.06096C148.28 8.86844 148.685 8.78631 149.086 8.82512Z" fill="#3C1C72"/>
<path d="M57.7861 16.8081C56.5623 23.4118 55.305 29.9444 54.1711 36.4979C53.9138 37.9775 53.7527 39.5302 54.1711 41.0474C54.9598 43.8937 58.3133 45.0535 61.2568 43.5802C63.7673 42.3263 64.8488 40.0777 65.4702 37.5888C66.1751 34.8945 66.7048 32.1574 67.0559 29.3948C67.2338 27.8546 67.5852 26.0762 65.8635 24.8433C65.194 24.3647 64.4451 24.5486 63.807 24.1599C63.4639 23.9509 62.6459 24.2874 62.874 23.487C63.0371 22.9102 63.0351 22.0952 64.0769 22.0806C66.3216 22.0492 68.4701 21.4934 70.6124 20.8121C73.2923 19.9616 75.7253 18.6659 78.104 17.2239C78.3132 17.0923 78.5119 16.8373 78.7316 16.806C79.3424 16.7433 80.0642 16.5698 80.5537 16.806C81.2357 17.1487 80.5976 17.8362 80.514 18.3232C79.5349 23.9447 78.447 29.5474 77.491 35.173C77.0307 37.8751 76.2588 40.5417 76.3006 43.3232C76.3111 44.1152 76.3006 44.8717 77.196 45.3293C78.0328 45.7598 78.5412 45.2269 79.2148 44.9699C79.8236 44.7379 80.2943 43.3775 81.1186 44.4579C81.765 45.3043 80.7106 45.8037 80.3069 46.2593C77.6751 49.2435 74.4345 50.5329 70.3927 49.7764C68.6103 49.442 67.0455 48.9405 65.7777 47.5884C65.1501 46.928 65.0162 46.0963 64.7861 45.3649C64.4786 44.3806 64.2882 44.7003 63.8384 45.1559C62.2093 46.8744 60.1912 48.1772 57.9535 48.9551C53.9619 50.3072 50.0038 50.4806 46.1691 48.4159C44.0603 47.2812 43.0541 45.4317 42.5415 43.1225C41.7382 39.4905 43.008 36.1176 43.508 32.636C43.7695 30.8221 44.2821 29.0249 44.1482 27.1608C44.0394 25.629 42.9306 24.6218 40.7905 24.1265C40.3616 24.0262 39.6357 24.2205 39.8658 23.441C40.0353 22.8684 40.0206 22.1098 41.0666 22.0555C46.1084 21.7943 50.6732 20.0953 54.8071 17.2302C55.736 16.6096 56.6941 16.7391 57.7861 16.8081Z" fill="#3C1C72"/>
<path d="M111.587 49.2352C104.761 49.2352 97.9336 49.231 91.1039 49.2226C90.6311 49.2226 89.9323 49.5737 89.8486 48.5623C89.7817 47.6616 90.1436 47.3565 90.9553 47.2102C94.2398 46.6188 95.631 44.8926 96.2 41.4716C96.4867 39.7601 96.4636 38.0778 96.4678 36.383C96.4999 27.8024 96.4999 19.2218 96.4678 10.6411C96.4678 8.79796 96.2879 6.97985 95.4574 5.27459C94.4741 3.25378 92.8779 2.22352 90.6457 2.23815C89.9574 2.23815 89.7817 1.94976 89.8717 1.37507C89.9532 0.854714 89.4993 0.0250727 90.5892 0.0355216H91.1164C98.6477 0.0355216 106.179 0.0355216 113.71 0.0355216C114.24 0.0355216 114.966 -0.292574 115.007 0.794111C115.035 1.66973 114.798 2.00409 113.899 2.11694C110.384 2.55161 108.928 4.4763 108.562 7.81785C108.423 9.26242 108.362 10.7135 108.38 12.1646C108.367 23.1234 108.39 34.0801 108.348 45.0368C108.348 46.1799 108.614 46.5498 109.813 46.5226C113.204 46.4411 116.597 46.4934 119.989 46.5038C124.302 46.5185 127.064 44.0797 129.152 40.6524C130.253 38.8768 131.098 36.9547 131.662 34.9432C131.974 33.8001 132.984 34.1741 133.754 34.1909C134.706 34.2118 134.212 35.01 134.191 35.3778C133.955 39.6201 133.656 43.8582 133.369 48.0962C133.315 48.8987 132.997 49.2561 132.074 49.2498C125.244 49.2143 118.409 49.2352 111.587 49.2352Z" fill="#3C1C72"/>
<path d="M14.2363 49.8182C11.546 49.929 8.35145 49.1516 5.51257 47.2164C2.58373 45.2228 0.769938 42.4476 0.240655 38.9347C-0.596156 33.4302 0.726006 28.5464 4.2971 24.1725C7.74058 19.9532 12.2489 17.8801 17.4413 17.0421C21.207 16.4382 24.9559 16.48 28.5291 18.0202C34.4788 20.5843 35.1692 25.7523 34.2675 30.632C34.2527 30.8052 34.1725 30.9664 34.0431 31.0828C33.9137 31.1992 33.7449 31.2622 33.5709 31.2589C30.3868 31.564 27.2759 32.331 24.1212 32.8032C21.2886 33.2212 18.4455 33.6015 15.6233 34.0905C14.6526 34.2598 13.684 34.6736 12.728 34.636C11.5502 34.5921 11.751 35.2629 11.8556 35.8773C12.3933 39.0517 14.8681 41.4779 18.1317 42.1007C23.1526 43.062 27.6462 41.8917 31.6587 38.7779C32.1295 38.4122 32.5416 38.1405 33.1357 38.6922C33.7299 39.2439 33.3449 39.5699 33.0416 40.013C30.1253 44.3033 26.276 47.3899 21.3388 49.0513C19.276 49.7367 17.1296 49.8851 14.2363 49.8182ZM24.4873 24.814C24.4873 24.4191 24.5124 24.022 24.4873 23.627C24.2781 20.6428 22.5291 18.9397 19.9015 19.1904C18.5765 19.2884 17.3234 19.8304 16.3451 20.7285C13.2656 23.5873 12.387 27.3447 11.9644 31.3007C11.8891 32.0133 12.3535 31.8587 12.7154 31.8001C16.1861 31.2359 19.6547 30.6487 23.1254 30.0886C23.3435 30.0771 23.5497 29.9853 23.7042 29.831C23.8587 29.6766 23.9506 29.4707 23.9622 29.2527C24.2028 27.7815 24.4915 26.3145 24.4956 24.814H24.4873Z" fill="#3C1C72"/>
<path d="M169.915 49.2351C167.494 49.2351 165.072 49.2456 162.649 49.2351C162.285 49.2351 161.739 49.4984 161.697 48.7189C161.659 47.9938 162.084 48.0272 162.593 47.929C164.862 47.4818 166.042 46.2446 166.099 43.6366C166.247 36.778 166.268 29.913 166.084 23.0586C166.017 20.5759 165.151 19.1444 162.39 18.8623C161.791 18.8017 161.72 18.4444 161.706 17.9491C161.687 17.3451 162.08 17.3619 162.492 17.3639C168.597 17.4036 174.714 17.1424 180.795 17.8446C183.229 18.1035 185.564 18.9428 187.605 20.2917C191.548 22.9165 191.91 29.6581 188.086 32.7238C187.475 33.2128 186.871 33.8836 186.163 34.0529C184.726 34.3956 185.155 34.9034 185.699 35.7498C187.536 38.6128 189.255 41.5468 191.101 44.4056C192.314 46.2864 193.845 47.8224 196.293 47.9332C196.877 47.9583 196.866 48.3198 196.879 48.7419C196.893 49.3041 196.509 49.2351 196.168 49.233C192.954 49.233 189.739 49.2832 186.53 49.1745C185.182 49.1285 184.186 48.2676 183.433 47.1224C182.289 45.3795 181.53 43.4423 180.576 41.6074C179.72 39.9628 178.607 38.4519 177.996 36.6797C177.735 35.9191 177.103 35.9985 176.473 36.0068C173.875 36.0403 173.827 36.0319 173.89 38.5961C173.944 40.736 173.601 42.8906 174.122 45.0159C174.567 46.8319 175.454 47.6657 177.346 47.9123C177.875 47.9813 178.124 48.1066 178.12 48.6939C178.12 49.3542 177.687 49.2309 177.312 49.233C174.848 49.2372 172.382 49.2379 169.915 49.2351ZM173.89 26.6655C173.89 28.9058 173.906 31.1439 173.877 33.3842C173.877 33.9944 174.03 34.1908 174.674 34.2201C179.818 34.4562 182.894 31.3111 182.542 26.164C182.333 23.2383 181.366 20.8518 178.373 19.7693C177.203 19.3513 175.961 19.3367 174.743 19.1883C173.984 19.0964 173.869 19.4286 173.877 20.0786C173.9 22.2686 173.881 24.465 173.881 26.6593L173.89 26.6655Z" fill="#3C1C72"/>
<path d="M239.364 49.6155C234.333 49.7325 230.008 48.1317 226.552 44.4036C224.756 42.4511 223.508 40.059 222.935 37.4697C222.167 34.1261 222.224 30.6696 223.448 27.4179C225.517 21.9259 229.531 18.5447 235.303 17.4016C240.613 16.3567 245.604 17.1926 249.987 20.5028C253.353 23.044 255.155 26.5443 255.845 30.6842C256.484 34.2889 255.88 38.0035 254.132 41.2208C252.019 45.1643 248.719 47.7221 244.397 48.9885C242.732 49.4755 241.046 49.5152 239.364 49.6155ZM247.941 33.4573C247.83 32.1011 247.784 30.7406 247.598 29.3885C247.199 26.5381 246.519 23.7754 244.669 21.4474C241.782 17.8279 236.899 17.8049 234 21.4139C233.094 22.5508 232.405 23.8442 231.966 25.2299C230.692 29.1524 230.502 33.171 231.015 37.2189C231.351 39.852 232.006 42.3911 233.525 44.6355C236.517 49.0366 242.05 49.0596 245.075 44.6794C245.819 43.5892 246.391 42.3909 246.77 41.1268C247.546 38.6316 247.86 36.0675 247.952 33.4573H247.941Z" fill="#3C1C72"/>
<path d="M209.83 49.2351C207.364 49.2351 204.897 49.2351 202.431 49.2351C202.065 49.2351 201.594 49.3731 201.626 48.7043C201.64 48.253 201.697 47.9855 202.253 47.9416C204.826 47.743 206.019 45.8079 206.065 43.227C206.134 39.269 206.094 35.3089 206.094 31.3487C206.094 28.7093 206.188 26.0637 206.054 23.4327C205.92 20.8016 205.159 19.7149 203.222 18.9689C202.992 18.8492 202.733 18.7971 202.475 18.8184C201.793 18.9376 201.653 18.5468 201.628 17.9825C201.594 17.2699 202.079 17.3556 202.513 17.3556H210.307C212.552 17.3556 214.799 17.3556 217.046 17.3556C217.613 17.3556 218.067 17.3263 218.05 18.1497C218.033 18.8728 217.73 18.8331 217.155 18.8414C215.586 18.8665 214.349 20.0263 214.052 21.7002C213.898 22.5654 213.819 23.4421 213.816 24.3208C213.795 30.3477 213.803 36.3747 213.816 42.4016C213.816 43.4987 213.864 44.5896 214.234 45.6386C214.726 47.0054 215.699 47.7848 217.14 47.9186C217.667 47.9667 218.069 47.9855 218.042 48.7043C218.012 49.4838 217.468 49.2289 217.1 49.231C214.673 49.2456 212.251 49.2351 209.83 49.2351Z" fill="#3C1C72"/>
<path d="M148.103 49.2352C145.725 49.2352 143.346 49.2456 140.969 49.2352C140.603 49.2352 140.059 49.4964 140.02 48.7169C139.984 47.9896 140.405 48.0085 140.917 47.9311C143.089 47.603 144.398 46.1193 144.474 43.4005C144.582 39.7517 144.511 36.0988 144.511 32.448C144.511 29.5014 144.532 26.5548 144.497 23.6082C144.461 20.6616 143.49 19.5081 140.622 18.8623C140.124 18.7516 140.043 18.4444 140.02 17.9992C139.99 17.4287 140.304 17.3598 140.76 17.3723C145.735 17.3723 150.711 17.3723 155.687 17.3723C156.141 17.3723 156.457 17.4371 156.427 17.9992C156.402 18.5008 156.281 18.7829 155.697 18.8707C153.555 19.1842 152.697 20.0619 152.405 22.2018C152.303 22.894 152.247 23.5921 152.237 24.2916C152.222 30.3185 152.222 36.3447 152.237 42.3702C152.212 43.4679 152.361 44.5626 152.679 45.6136C153.139 47.0304 154.13 47.7389 155.547 47.8998C156.076 47.9604 156.476 47.9708 156.448 48.6897C156.417 49.4671 155.875 49.2143 155.507 49.2163C153.034 49.2456 150.568 49.2352 148.103 49.2352Z" fill="#3C1C72"/>
<path d="M149.086 8.82512C150.133 8.79377 150.714 9.35592 151.112 10.1208C151.49 10.8459 151.3 11.5836 150.81 12.1729C149.392 13.8949 147.254 14.3818 145.338 15.224C144.974 15.3849 144.626 14.7475 144.873 14.2314C145.576 12.7685 146.285 11.3057 147.095 9.90554C147.281 9.5476 147.57 9.25348 147.925 9.06096C148.28 8.86844 148.685 8.78631 149.086 8.82512Z" fill="#3C1C72"/>
</g>
<defs>
<clipPath id="clip0_97_41">
<rect width="256.081" height="50" fill="white"/>
</clipPath>
</defs>
</svg>
