<svg xmlns="http://www.w3.org/2000/svg" viewBox="0 0 557.94 475.88"><defs><style>.cls-1{fill:#3c1c72;}.cls-2{fill:#fdf3ba;}.cls-3{fill:#fddc5a;}.cls-4{fill:#fcf2b9;}.cls-5{fill:#fbda5b;}</style></defs><title>Ativo 1</title><g id="Camada_2" data-name="Camada 2"><g id="Camada_1-2" data-name="Camada 1"><path class="cls-1" d="M145.23,201.23c-7.74-8.38-17.11-14.63-26.83-20.38-19.56-11.59-40.49-20.23-61.68-28.28-3-1.13-4.64-.56-6.46,1.88-8.07,10.74-11.2,23.1-12.29,36.19-.36,4.44.81,9.83-4.61,11.94s-8.83-2.33-12.11-5.68C4,179.27-.7,151.73,9.62,129.88c1.53-3.24,4.26-4.34,7.67-4.73a53,53,0,0,0,29.88-13.56c27-24.07,57.14-31.85,91.38-16.61a12,12,0,0,0,2.56.45c0-6-.12-11.75.91-17.45,2.15-11.9,8.51-18.52,20.47-19.86,10.27-1.15,20.64-1.35,30.94-2.24a34.4,34.4,0,0,0,23.14-11.06c5.39-5.86,10.51-12,16-17.77,12.94-13.75,29.77-16,46-6.23,11.79,7.1,20,17.62,26.54,29.34,2.62,4.67,3.88,5.2,8.2,1.51,28.06-24,59.37-42,96.09-49.05C425.49-.5,441.76-1.06,458,2.18c3.67.73,7.74,1.35,9,5.81s-2,6.79-4.93,9.32c-11.59,10.08-19.57,22.53-23.16,37.46a320.41,320.41,0,0,1-41.37,97.81c-.39.62-.65,1.33-1.47,3a222.91,222.91,0,0,1,29.65.59c19.34,1.45,38.2,5.1,56.26,12.41,28.16,11.42,48,31.42,60.27,59,10.37,23.19,15.14,47.64,15.73,73,.08,3.75-.21,7.26-4.21,9.05s-6.76-.62-9.49-3.09c-21.75-19.77-45-37.35-72.3-48.9-18.07-7.64-36.1-9.38-55.07-2.33-17.43,6.48-35.7,9.86-54.46,8.37-5.37-.43-4.22,2.55-3.92,5.38a676.17,676.17,0,0,1,3.06,95.45c-1,29.84-2.72,59.65-9.14,88.95-1.24,5.64-2.72,11.22-5.54,16.31-3.43,6.19-8.13,7.68-14.5,4.56-6.66-3.26-12.42-7.9-18-12.7-31.34-27-59-57.49-85.82-88.86-13.33-15.6-26.5-31.27-33.26-51.2a194.43,194.43,0,0,1-6.83-28.08c-16.49,5.41-32.79,10.4-49.5,13.88-9.17,1.91-18.43,3.84-27.75,3.72-10.16-.13-18,4-25.23,10.34-16.76,14.76-29.22,33-41.86,51.17-5.46,7.83-10.7,15.83-16.39,23.48-6,8.05-12.84,7.6-17.74-1.21-7.23-13-9.65-27.41-10-42-1.18-56.73,26.33-96.72,74-124.48,21.11-12.3,44-20.13,67.79-25.52C142.93,202.58,144.21,202.7,145.23,201.23Zm86.34-37.77c.16.56.41,1.06,1.07.65a5.81,5.81,0,0,0-.46-1.29l-.82-1.3c-11.81-17.18-24-34.06-39.48-48.21-3.6-3.29-7.17-6.92-12.49-7.44-6.44-1-9.25-3.59-8.61-8,.66-4.62,5.72-7.2,11.64-5.83,1.7.4,3.35,1.06,5,1.6,8.17,4.39,15,10.46,21.31,17.15,12.59,13.36,23.31,28.22,34,43.1,1.12,1.56,1.79,3.78,4.23,4.34.11-.77.31-1.19.21-1.54-6.95-24.65-14.07-49.27-16.55-74.92.35-4.52.53-9.06,1.08-13.55.75-6.14,2.3-12.07,6.83-16.66,2.93-3,6.45-4.24,10-1.17s3.17,6.55.41,10c-1.8,2.21-3.06,4.58-2.93,7.51-2.26,7.42-1.49,15-.53,22.42,3,23.31,10,45.67,16.63,68.11.23.77-.05,2.4,1.84,2.37a128.2,128.2,0,0,1,1.76-24.4c3.09-20.95,11.08-40,22.46-57.76,2.85-3.56,5.66-7.15,8.56-10.67.94-1.15,1.6-2.15.78-3.68-7-12.85-14.25-25.52-27.7-32.75-10.45-5.63-19.42-3.87-27.44,4.83-4.05,4.39-7.93,8.93-11.74,13.53-11.43,13.85-26.43,19.8-44,20.32-7.36.22-14.71.69-22.05,1.25-3.22.24-6.64,1-7.79,4.55-3.08,9.38-1.85,18.88,0,28.3.18,1,1.49,1.82,2.45,2.46,5.3,3.51,10.65,6.93,16,10.38q28.59,21.38,55.1,45.26ZM179,204.06c.17,1.59,1.6,1.2,2.53,1.6,23.86,8.47,48.61,8.39,73.43,7.62,1.87-.05.95-1.1.59-1.91,0-2.48-2-3.79-3.34-5.38-31.74-37.26-68.88-68.16-110.51-93.78-25.31-15.59-50.36-14.85-75.1,1.13-8.78,5.68-15.3,14.32-25.85,19.1,11.58,4.25,22,7.82,32.28,11.92,30.16,12.09,59.49,25.56,83.62,48.26A43.69,43.69,0,0,0,179,204.2ZM440.85,18.88c.93,0,1.22-.64,1.48-1.35,1-.86,2.26-1.49,2.3-3.42a122.82,122.82,0,0,0-30.83,1.67c-38.33,7.17-70.55,26-98.59,52.39-13.61,12.79-24,28-29.81,46-4.45,9.44-5.95,19.6-6.5,30.16q3-7.09,6.05-14.19c.91-1.75,1.85-3.5,2.75-5.27a165.41,165.41,0,0,1,19.71-30.41c3-3.61,6.53-5.7,10.68-2.07,3.69,3.23,3,7,0,10.47-.91,1.05-1.71,2.2-2.54,3.31-19.17,25.73-30.3,54.61-33.86,86.46-.32,2.93-1.27,6.85,1,8.33,2,1.32,4.61-2.11,7.08-3.2a43.21,43.21,0,0,0,4.1-2.38c11.27-4.52,22.76-7.69,34.73-3.2a10.47,10.47,0,0,0,9-.59c14.83-7.18,26.64-18,36.87-30.67,19.2-23.86,32-51.15,42.37-79.69,7.63-21,10.13-43.9,24.18-62.37ZM181.64,220.57c-5.14-2-10.35-3.93-15.39-6.19a12.51,12.51,0,0,0-7.56-.7C133.27,218,108.83,225.46,86,237.57c-41.16,21.87-68.35,53.84-72.41,102.09a103.8,103.8,0,0,0,6.07,44.8l26.72-39.1c2-2.46,4-4.88,6-7.37,8.25-10.51,16.84-20.7,27.37-29.06,7.42-5.9,15.47-11,25.19-11.22,26-.68,50.45-8.24,75-15.72,6.07-1.85,8.35-4.62,8.77-11,1.07-16.2,6.95-30.52,19.16-41.78.88-.82,2.67-1.34,1.69-3.42C200.15,225,191,222.37,181.64,220.57Zm360.64,60c-.62-10.18-3.06-20-6-29.71-8.7-28.15-23.34-51.92-50.74-65.48-30.94-15.3-64.08-17.57-97.84-15.52a7.07,7.07,0,0,0-5.13,2.59c-4.08,4.61-8.34,9.07-12.53,13.58-7.89,6.34-15.72,12.79-25,17.08-2.55,1.18-2.26,2.43-1.17,4.57,5.83,11.42,9.05,23.69,11,36.29.57,3.62,1.86,5.33,5.88,5.78,18.45,2.05,36.16-1.73,53.17-7.86,20.7-7.45,40.54-5.65,60.41,2.07,23.59,9.16,44.27,23.14,63.8,39,1,.84,2.07,2.59,3.42,1.91C543.12,284.06,542.47,282.13,542.28,280.6Zm-269-52.69c-9.7-.94-19.32-1.43-29.12-.31-20.29,2.3-35.59,14.44-40,34.47-6.67,30.2.7,57.91,19,82.08,27.34,36.05,58.44,68.82,91.42,99.78a154.67,154.67,0,0,0,18.43,15.14c1.74,1.2,3.91,3.23,4.11-1.19.68-2.26,1.55-4.48,2-6.78,5.3-26.21,7.18-52.81,8.21-79.44,1.53-40,1.68-80-4.66-119.67-2.17-13.55-5-27-11.53-39.27-3.33-6.24-8-9.36-15.35-9-9.56.5-17.55,4.53-25.29,9.58C284.19,217.48,279.18,223.2,273.3,227.91ZM25.43,180.36c2.32-11.82,5.65-21.9,11.76-30.86,1.57-2.29,1.31-3.39-1.41-4.15a122.57,122.57,0,0,1-12.46-3.94c-2.87-1.15-3.5.34-4,2.44C16.14,156.37,17.6,168.15,25.43,180.36Z"/><path class="cls-2" d="M337.16,457.88c-.2,4.42-2.37,2.39-4.11,1.19a154.67,154.67,0,0,1-18.43-15.14c-33-31-64.08-63.73-91.42-99.78-18.33-24.17-25.7-51.88-19-82.08,4.42-20,19.72-32.17,40-34.47,9.8-1.12,19.42-.63,29.12.31.88,6.12,3.07,11.9,4.72,17.82Q307.62,351.8,337.16,457.88Z"/><path class="cls-3" d="M337.16,457.88Q307.59,351.8,278,245.73c-1.65-5.92-3.84-11.7-4.72-17.82,5.88-4.71,10.89-10.43,17.26-14.59,7.74-5,15.73-9.08,25.29-9.58,7.35-.38,12,2.74,15.35,9,6.58,12.31,9.36,25.72,11.53,39.27,6.34,39.69,6.19,79.68,4.66,119.67-1,26.63-2.91,53.23-8.21,79.44C338.71,453.4,337.84,455.62,337.16,457.88Z"/><path class="cls-3" d="M441,18.88C427,37.35,424.46,60.29,416.83,81.25c-10.39,28.54-23.17,55.83-42.37,79.69-10.23,12.7-22,23.49-36.87,30.67a10.47,10.47,0,0,1-9,.59c-12-4.49-23.46-1.32-34.73,3.2,5-22.64,13.61-43.91,23.41-64.82a165.6,165.6,0,0,1,36.43-50.45C374.41,60.5,397.46,44,421.67,29,427.85,25.22,433.59,20.39,441,18.88Z"/><path class="cls-3" d="M542.28,280.6c.19,1.53.84,3.46-.73,4.27-1.35.68-2.39-1.07-3.42-1.91-19.53-15.83-40.21-29.81-63.8-39-19.87-7.72-39.71-9.52-60.41-2.07-17,6.13-34.72,9.91-53.17,7.86-4-.45-5.31-2.16-5.88-5.78-2-12.6-5.21-24.87-11-36.29-1.09-2.14-1.38-3.39,1.17-4.57,9.27-4.29,17.1-10.74,25-17.08,18.39-1.58,36.71-2.07,55.05,1.14,43.63,7.62,78.39,28.71,102.84,66.11C533.57,262,537.26,271.63,542.28,280.6Z"/><path class="cls-4" d="M179,204.2a43.69,43.69,0,0,1-22.37-11.58c-24.13-22.7-53.46-36.17-83.62-48.26-10.24-4.1-20.7-7.67-32.28-11.92C51.3,127.66,57.82,119,66.6,113.34c24.74-16,49.79-16.72,75.1-1.13,41.63,25.62,78.77,56.52,110.51,93.78,1.35,1.59,3.34,2.9,3.34,5.38-22-10.2-42.94-22.36-63.28-35.46C170.6,162,150.12,146.13,127,134.55c-2.27-1.14-4.29-3-8.27-2.8,3,2.71,5,4.79,7.3,6.62C148.41,156.48,161.81,181.88,179,204.2Z"/><path class="cls-3" d="M181.64,220.57c9.34,1.8,18.51,4.46,28,5.23,1,2.08-.81,2.6-1.69,3.42-12.21,11.26-18.09,25.58-19.16,41.78-.42,6.37-2.7,9.14-8.77,11-24.56,7.48-49,15-75,15.72-9.72.25-17.77,5.32-25.19,11.22C69.24,317.29,60.65,327.48,52.4,338c-2,2.49-4,4.91-6,7.37-.3-7.28,1.9-14.15,3.74-21,5.7-21.29,12.93-42,30.39-56.87,13.74-11.69,30.21-19,46.5-26.41C144.77,233,163.32,227.09,181.64,220.57Z"/><path class="cls-4" d="M441,18.88c-7.42,1.51-13.16,6.34-19.34,10.15-24.21,14.94-47.26,31.47-68,51.1a165.6,165.6,0,0,0-36.43,50.45c-9.8,20.91-18.45,42.18-23.41,64.82a43.21,43.21,0,0,1-4.1,2.38c-2.47,1.09-5.07,4.52-7.08,3.2-2.26-1.48-1.31-5.4-1-8.33,3.56-31.85,14.69-60.73,33.86-86.46.83-1.11,1.63-2.26,2.54-3.31,3-3.51,3.71-7.24,0-10.47-4.15-3.63-7.71-1.54-10.68,2.07a165.41,165.41,0,0,0-19.71,30.41c-.9,1.77-1.84,3.52-2.75,5.27-2.24-5.39,1.68-10.61.45-16,5.79-18,16.2-33.23,29.81-46,28-26.38,60.26-45.22,98.59-52.39a122.82,122.82,0,0,1,30.83-1.67c0,1.93-1.32,2.56-2.3,3.43l-1.48,1.34Z"/><path class="cls-4" d="M181.64,220.57c-18.32,6.52-36.87,12.43-54.61,20.5-16.29,7.4-32.76,14.72-46.5,26.41-17.46,14.86-24.69,35.58-30.39,56.87-1.84,6.86-4,13.73-3.74,21l-26.72,39.1a103.8,103.8,0,0,1-6.07-44.8C17.67,291.41,44.86,259.44,86,237.57c22.81-12.11,47.25-19.56,72.67-23.89a12.51,12.51,0,0,1,7.56.7C171.29,216.64,176.5,218.53,181.64,220.57Z"/><path class="cls-4" d="M175.17,117.11c-5.33-3.45-10.68-6.87-16-10.38-1-.64-2.27-1.51-2.45-2.46-1.82-9.42-3.05-18.92,0-28.3,1.15-3.5,4.57-4.31,7.79-4.55,7.34-.56,14.69-1,22.05-1.25,17.59-.52,32.59-6.47,44-20.32,3.81-4.6,7.69-9.14,11.74-13.53,8-8.7,17-10.46,27.44-4.83,13.45,7.23,20.74,19.9,27.7,32.75.82,1.53.16,2.53-.78,3.68-2.9,3.52-5.71,7.11-8.56,10.67-.41-2.07-1.85-3.47-3.27-4.86-11.56-11.22-24.67-12.2-38.89-5.88-.13-2.93,1.13-5.3,2.93-7.51,2.76-3.41,3-7-.41-10s-7.05-1.81-10,1.17c-4.53,4.59-6.08,10.52-6.83,16.66-.55,4.49-.73,9-1.08,13.55A83.46,83.46,0,0,1,209.87,86c-7.84.76-17.19-1.36-22.42,7.61-1.68-.54-3.33-1.2-5-1.6-5.92-1.37-11,1.21-11.64,5.83-.64,4.42,2.17,7,8.61,8Q177.27,111.5,175.17,117.11Z"/><path class="cls-4" d="M542.28,280.6c-5-9-8.71-18.61-14.39-27.29-24.45-37.4-59.21-58.49-102.84-66.11-18.34-3.21-36.66-2.72-55.05-1.14,4.18-4.51,8.44-9,12.52-13.58a7.07,7.07,0,0,1,5.13-2.59c33.76-2,66.9.22,97.84,15.52,27.4,13.56,42,37.33,50.74,65.48C539.22,260.57,541.66,270.42,542.28,280.6Z"/><path class="cls-3" d="M179,204.2c-17.21-22.32-30.61-47.72-53-65.83-2.26-1.83-4.32-3.91-7.3-6.62,4-.22,6,1.66,8.27,2.8,23.17,11.58,43.65,27.41,65.32,41.36,20.34,13.1,41.27,25.26,63.28,35.46.36.81,1.28,1.86-.59,1.91-24.82.77-49.57.85-73.43-7.62a2.14,2.14,0,0,0-2.53-1.6Z"/><path class="cls-5" d="M246,67.85c14.22-6.32,27.33-5.34,38.89,5.88,1.42,1.39,2.86,2.79,3.27,4.86-11.38,17.74-19.37,36.81-22.46,57.76a128.2,128.2,0,0,0-1.76,24.4c-1.89,0-1.61-1.6-1.84-2.37-6.63-22.44-13.62-44.8-16.63-68.11C244.52,82.81,243.75,75.27,246,67.85Z"/><path class="cls-5" d="M187.45,93.63c5.23-9,14.58-6.85,22.42-7.61a83.46,83.46,0,0,0,20.77-4.26c2.48,25.65,9.6,50.27,16.55,74.92.1.35-.1.77-.21,1.54-2.44-.56-3.11-2.78-4.23-4.34-10.68-14.88-21.4-29.74-34-43.1C202.45,104.09,195.62,98,187.45,93.63Z"/><path class="cls-5" d="M175.17,117.11q2.1-5.61,4.22-11.24c5.32.52,8.89,4.15,12.49,7.44,15.48,14.15,27.67,31,39.48,48.21l-1.09.85Q203.74,138.51,175.17,117.11Z"/><path class="cls-5" d="M25.43,180.36c-7.83-12.21-9.29-24-6.14-36.51.53-2.1,1.16-3.59,4-2.44a122.57,122.57,0,0,0,12.46,3.94c2.72.76,3,1.86,1.41,4.15C31.08,158.46,27.75,168.54,25.43,180.36Z"/><path class="cls-4" d="M285.4,114.19c1.23,5.36-2.69,10.58-.45,16q-3,7.09-6.05,14.19C279.45,133.79,281,123.63,285.4,114.19Z"/><path class="cls-4" d="M179,204.06a2.14,2.14,0,0,1,2.53,1.6C180.6,205.26,179.17,205.65,179,204.06Z"/><path class="cls-3" d="M440.85,18.88l1.48-1.34C442.07,18.24,441.78,18.92,440.85,18.88Z"/><path class="cls-5" d="M231.36,161.52l.82,1.3c-.2.21-.41.42-.61.64l-1.3-1.09Z"/><path class="cls-5" d="M232.18,162.82a5.81,5.81,0,0,1,.46,1.29c-.66.41-.91-.09-1.07-.65C231.77,163.24,232,163,232.18,162.82Z"/></g></g></svg>